<?xml version="1.0" standalone="no"?>
<!DOCTYPE svg PUBLIC "-//W3C//DTD SVG 20010904//EN"
 "http://www.w3.org/TR/2001/REC-SVG-20010904/DTD/svg10.dtd">
<svg version="1.0" xmlns="http://www.w3.org/2000/svg"
 width="220.000000pt" height="200.000000pt" viewBox="0 0 220.000000 200.000000"
 preserveAspectRatio="xMidYMid meet">

<g transform="translate(0.000000,200.000000) scale(0.100000,-0.100000)"
fill="#0000001a" stroke="none">
<path d="M684 1613 c-32 -20 -47 -23 -87 -18 -38 5 -49 3 -53 -10 -9 -22 36
-134 96 -238 28 -48 50 -92 50 -97 0 -20 -17 -9 -31 19 -18 39 -162 169 -195
177 -52 13 -132 -32 -95 -55 9 -6 10 -11 2 -15 -6 -4 -11 -15 -11 -24 0 -9
-17 -26 -37 -37 -41 -22 -68 -62 -78 -116 -5 -29 -2 -41 17 -62 21 -24 31 -27
115 -31 51 -3 103 -10 115 -17 22 -12 22 -12 -12 -40 -66 -56 -95 -64 -185
-51 -107 16 -136 15 -163 -4 -17 -12 -22 -24 -20 -47 3 -28 11 -36 56 -58 72
-35 80 -44 58 -68 -10 -11 -16 -27 -13 -36 14 -34 79 -10 160 57 50 42 50 42
142 23 24 -5 37 -1 60 19 17 14 36 24 43 21 8 -3 25 -5 38 -5 55 0 12 -78 -56
-100 -23 -7 -52 -26 -65 -42 -24 -28 -42 -84 -31 -95 3 -4 6 2 6 11 0 10 8 34
17 53 13 28 30 41 79 63 65 29 88 55 82 93 -2 16 -11 23 -30 25 -36 4 -35 13
3 35 39 22 51 21 97 -2 94 -48 124 -134 125 -356 l1 -150 -48 -104 c-26 -56
-45 -105 -42 -108 2 -2 14 17 26 44 11 26 31 59 44 73 13 14 56 93 96 176 57
117 80 155 104 169 17 10 35 18 40 16 5 -1 34 23 65 53 31 30 73 62 94 71 32
13 37 18 26 31 -9 11 -9 20 0 41 l12 26 23 -34 c12 -19 30 -54 40 -79 19 -48
18 -51 -38 -85 -13 -8 -18 -30 -21 -97 -4 -96 -7 -90 79 -151 14 -10 26 -24
26 -32 0 -8 5 -15 10 -15 6 0 10 5 10 10 0 6 20 19 45 30 32 14 50 29 61 54
l17 35 -41 46 c-22 25 -44 62 -49 82 -11 47 -39 65 -59 39 -8 -11 -12 -27 -10
-35 3 -9 7 -32 10 -51 5 -31 5 -33 -6 -13 -14 29 -24 29 -31 2 -4 -15 -2 -19
9 -15 11 4 14 -5 14 -39 0 -25 4 -45 9 -45 16 0 23 58 16 120 -4 32 -4 63 -1
69 13 20 34 -1 40 -38 3 -23 17 -48 37 -66 17 -17 35 -38 41 -48 14 -27 -15
-65 -69 -88 -45 -19 -46 -19 -59 -1 -7 11 -27 25 -44 32 -40 17 -47 37 -42
128 4 72 4 74 39 94 31 19 34 25 29 51 -3 16 -25 64 -48 106 l-42 76 -11 -35
c-5 -19 -16 -45 -22 -56 -7 -12 -10 -24 -7 -27 3 -3 -8 -13 -25 -21 -17 -9
-40 -30 -52 -46 -12 -16 -29 -32 -37 -35 -18 -7 -3 13 66 86 36 38 45 57 55
108 9 48 15 60 27 55 21 -9 28 -8 96 17 l61 23 83 -19 c81 -20 104 -35 81 -58
-17 -17 -13 -91 10 -151 40 -109 111 -147 164 -90 41 44 42 86 6 156 -17 34
-31 65 -31 69 0 5 15 8 33 8 17 -1 24 -3 15 -6 -10 -2 -18 -11 -18 -18 0 -20
105 -130 174 -182 34 -26 76 -60 93 -76 18 -17 35 -28 39 -24 3 3 -1 34 -10
69 -9 36 -16 78 -16 95 0 16 -15 59 -32 94 -31 60 -36 65 -88 84 -41 14 -78
19 -147 17 -84 -1 -111 6 -83 23 16 10 12 35 -6 35 -8 0 -22 -16 -30 -36 -13
-30 -13 -38 -2 -46 7 -4 65 -5 128 -2 154 9 179 -1 220 -88 17 -36 30 -80 30
-103 1 -22 7 -58 15 -80 8 -21 13 -40 12 -41 -1 -1 -48 35 -105 80 -94 75
-172 155 -172 178 0 14 54 -3 65 -21 18 -29 76 -81 91 -81 22 0 17 34 -8 57
-80 74 -208 112 -208 62 0 -11 11 -37 25 -57 70 -103 -12 -237 -94 -154 -46
45 -89 190 -65 215 4 3 19 0 35 -8 20 -11 30 -25 35 -50 11 -61 64 -76 64 -18
0 38 -26 73 -54 73 -40 0 -71 51 -46 76 8 8 7 20 0 39 -14 36 -7 53 25 65 37
14 75 -3 75 -35 0 -28 30 -45 81 -45 17 0 32 -6 35 -15 8 -19 24 -19 24 0 0 8
-10 17 -22 19 -98 18 -103 20 -106 49 -4 33 -40 51 -83 42 -43 -10 -55 -30
-42 -76 6 -25 7 -42 1 -45 -6 -4 -50 2 -99 12 -93 19 -112 17 -198 -17 -33
-14 -34 -14 -70 30 -74 89 -130 146 -137 139 -4 -4 20 -37 54 -72 68 -73 79
-104 62 -177 -11 -43 -26 -65 -102 -145 -52 -53 -98 -94 -109 -94 -11 0 -19
-7 -19 -16 0 -10 -17 -47 -39 -84 -21 -37 -44 -83 -50 -101 -7 -19 -21 -50
-32 -69 -11 -19 -17 -26 -13 -15 4 11 9 80 11 154 2 109 -1 151 -18 222 -23
101 -40 126 -106 164 -27 16 -49 29 -51 31 -6 4 18 44 27 44 4 0 16 -16 27
-36 22 -41 111 -117 126 -108 10 6 6 53 -7 87 -6 14 -2 17 24 17 42 0 48 20
22 73 -26 54 -26 53 7 62 15 3 36 15 47 24 11 10 32 21 47 25 15 3 29 14 32
24 3 10 26 39 50 64 46 49 120 183 110 200 -3 5 -23 -7 -44 -25 -20 -19 -71
-54 -111 -77 -41 -24 -89 -54 -107 -67 -17 -13 -37 -21 -42 -18 -6 4 -10 72
-10 171 0 204 1 202 -117 202 -66 0 -86 -4 -119 -25z m209 -2 c14 -14 23 -321
10 -321 -5 0 -19 7 -32 16 -29 21 -36 12 -49 -61 -12 -72 -28 -115 -42 -115
-14 0 -13 10 4 29 7 9 16 36 20 61 5 39 4 43 -7 28 -10 -13 -23 -16 -51 -11
-31 5 -40 13 -58 47 -11 23 -29 53 -40 69 -29 40 -100 208 -94 222 3 8 21 11
53 8 38 -3 56 1 87 20 34 21 49 24 114 22 40 -2 79 -8 85 -14z m-419 -181 c33
-12 172 -149 180 -177 4 -12 15 -25 26 -28 15 -5 60 -65 60 -80 0 -3 -11 -12
-25 -21 -39 -25 -168 -35 -235 -18 -30 8 -83 14 -119 14 -77 0 -101 16 -101
68 0 51 26 96 66 116 20 9 38 26 41 36 6 22 23 27 23 8 0 -7 -18 -39 -40 -72
-22 -32 -40 -65 -40 -73 0 -30 36 -6 72 49 21 32 52 65 69 73 38 20 38 58 -1
63 -48 5 -70 12 -70 23 0 10 35 27 57 28 6 1 23 -3 37 -9z m716 -65 c-12 -25
-41 -66 -64 -91 -41 -46 -43 -47 -86 -40 -25 4 -52 11 -60 16 -21 13 -4 28 90
81 41 23 88 52 105 65 16 13 31 21 33 19 3 -2 -6 -24 -18 -50z m-724 4 c3 -6
-10 -24 -30 -41 -20 -16 -50 -50 -68 -76 -17 -25 -34 -40 -36 -34 -2 7 12 34
32 59 22 28 36 57 36 75 0 24 4 28 29 28 17 0 33 -5 37 -11z m419 -85 c15 -10
25 -26 25 -40 0 -21 2 -23 19 -12 15 9 29 9 61 -1 36 -11 41 -15 29 -26 -14
-14 -108 -47 -166 -60 -27 -5 -33 -4 -33 11 0 36 24 144 32 144 5 0 20 -7 33
-16z m-122 -67 c16 -11 16 -15 3 -32 -12 -16 -16 -17 -30 -6 -19 16 -21 51 -3
51 7 0 21 -6 30 -13z m305 -19 c-3 -7 -18 -18 -35 -23 -18 -6 -40 -18 -50 -27
-10 -9 -30 -20 -46 -23 -15 -4 -29 -11 -32 -15 -3 -4 7 -29 21 -55 19 -34 24
-49 16 -57 -20 -20 -62 8 -79 52 -9 22 -20 40 -25 40 -4 0 -1 -17 8 -37 28
-66 53 -144 45 -139 -4 3 -32 41 -61 86 -50 75 -52 81 -37 103 11 17 32 26 80
36 36 7 92 26 124 41 66 32 76 35 71 18z m-288 -88 c0 -5 -9 -19 -20 -30 -10
-10 -28 -37 -39 -59 -21 -40 -55 -71 -78 -71 -7 0 5 25 27 57 22 31 40 61 40
66 0 18 32 47 52 47 10 0 18 -4 18 -10z m-80 -24 c0 -8 -20 -45 -45 -82 -25
-36 -45 -69 -45 -71 0 -7 -55 -52 -71 -58 -9 -3 -35 1 -58 10 -49 17 -61 13
-132 -47 -42 -35 -106 -64 -117 -53 -13 13 14 38 64 60 62 28 65 41 13 67 -62
31 -109 17 -73 -23 20 -22 33 -17 14 6 -19 23 -6 29 34 15 41 -13 54 -29 35
-41 -26 -15 -77 -6 -136 25 -68 36 -80 65 -38 92 24 16 35 16 124 4 54 -7 111
-10 127 -6 15 4 55 27 87 52 51 38 66 44 110 45 29 0 61 4 72 9 29 12 35 12
35 -4z m91 -83 c13 -21 28 -45 33 -53 8 -13 7 -13 -8 -1 -17 14 -61 91 -52 91
2 0 15 -17 27 -37z m935 -98 c17 -26 16 -56 -3 -62 -10 -4 -33 52 -33 80 0 16
20 6 36 -18z m219 -35 c17 -18 23 -30 15 -30 -15 0 -60 39 -60 52 0 16 17 8
45 -22z"/>
</g>
</svg>
