<?xml version="1.0" standalone="no"?>
<!DOCTYPE svg PUBLIC "-//W3C//DTD SVG 20010904//EN"
 "http://www.w3.org/TR/2001/REC-SVG-20010904/DTD/svg10.dtd">
<svg version="1.0" xmlns="http://www.w3.org/2000/svg"
 width="1992.000000pt" height="1739.000000pt" viewBox="0 0 1992.000000 1739.000000"
 preserveAspectRatio="xMidYMid meet">

<g transform="translate(0.000000,1739.000000) scale(0.100000,-0.100000)"
fill="#ffffff" stroke="none">
<path d="M3771 17367 c-42 -13 -98 -68 -117 -113 -45 -107 19 -236 132 -266
l44 -12 0 -63 c0 -53 -4 -66 -25 -87 -31 -31 -32 -69 -4 -97 19 -19 21 -29 16
-91 -5 -55 -10 -73 -28 -87 -33 -26 -32 -87 1 -113 32 -26 29 -75 -5 -101 -13
-10 -29 -33 -35 -53 -10 -29 -9 -41 8 -75 l20 -39 -28 -113 c-77 -306 -131
-610 -164 -935 l-15 -143 -61 -66 c-68 -72 -100 -119 -100 -145 0 -20 29 -38
59 -38 20 0 21 -5 21 -119 l0 -119 -55 -42 c-125 -96 -273 -279 -282 -349 -9
-63 48 -112 165 -142 l52 -13 0 -343 0 -343 -110 0 -110 0 0 -124 0 -123 -44
-17 c-85 -33 -159 -133 -159 -218 0 -82 95 -218 181 -259 107 -51 155 -109
199 -244 l25 -80 -2 -390 c-4 -846 -47 -4485 -53 -4491 -3 -3 -21 -9 -39 -13
l-33 -7 -3 -80 -3 -81 -66 -6 c-47 -5 -73 -12 -86 -26 -19 -19 -19 -20 34
-118 29 -54 63 -118 76 -143 l22 -45 -24 -970 c-13 -533 -36 -1495 -51 -2138
l-28 -1167 -173 0 -173 0 0 698 c0 669 -1 698 -19 728 -11 18 -35 44 -54 58
-29 22 -35 33 -32 56 2 16 13 38 24 49 26 26 26 42 2 72 -14 18 -16 30 -10 58
24 103 -3 281 -58 384 -16 28 -54 80 -87 114 -48 52 -79 74 -167 118 -59 29
-133 62 -163 71 -40 13 -56 23 -56 35 0 10 -4 20 -8 23 -4 2 -9 39 -10 80 -1
55 1 76 10 76 7 1 -1 7 -19 15 -41 17 -53 57 -28 85 10 11 13 20 7 20 -19 0
-44 -47 -37 -69 3 -11 17 -29 30 -39 20 -16 23 -26 20 -63 -2 -24 -4 -46 -5
-49 -1 -3 -1 -9 0 -15 1 -5 -4 -26 -10 -46 -11 -33 -18 -38 -84 -58 -200 -64
-343 -163 -411 -286 -63 -111 -92 -287 -66 -397 7 -31 5 -40 -10 -54 -26 -23
-24 -50 5 -77 41 -38 36 -66 -22 -123 l-52 -51 0 -1657 0 -1656 -75 0 -75 0
-1 263 c0 144 -4 503 -8 797 l-8 535 30 29 c46 46 68 110 74 208 l6 88 -62 0
-61 0 -1 68 c0 37 -6 284 -12 549 -10 400 -10 486 1 500 23 30 74 135 94 193
31 89 49 188 55 301 8 136 -1 199 -28 199 -16 0 -19 -7 -19 -50 0 -27 -4 -50
-10 -50 -5 0 -10 23 -10 50 0 49 -1 50 -29 50 -29 0 -30 -2 -34 -52 l-3 -53
-2 53 -2 52 -35 0 -35 0 0 436 0 435 29 42 c97 142 148 351 127 521 l-7 56
-91 0 -91 0 6 243 c7 288 19 367 65 424 18 23 45 68 59 100 26 56 28 66 31
251 l4 192 -36 0 -35 0 -3 -77 c-2 -61 -6 -78 -18 -78 -12 0 -16 17 -18 78
l-3 77 -34 0 -35 0 0 -80 c0 -73 -2 -80 -20 -80 -18 0 -20 7 -20 80 l0 80 -40
0 -40 0 0 96 c0 117 14 167 57 210 18 19 33 36 33 39 0 3 -14 14 -31 24 l-31
19 32 23 c37 28 65 71 75 116 15 74 -44 169 -139 224 -49 27 -52 31 -48 62 3
23 -5 51 -23 87 -21 42 -25 60 -19 89 9 44 6 61 -12 82 -20 23 -18 34 16 67
39 40 38 67 -6 158 l-36 73 17 71 c20 81 16 146 -12 212 -14 33 -16 48 -8 66
5 12 12 22 15 22 4 0 15 7 26 15 18 14 17 14 -10 5 -84 -30 -155 73 -94 137
12 13 17 23 11 23 -20 0 -63 -61 -63 -90 0 -30 43 -90 65 -90 23 0 25 -42 5
-101 -24 -69 -25 -138 -5 -205 17 -57 13 -81 -26 -150 -38 -68 -38 -107 1
-146 33 -32 38 -53 16 -61 -19 -7 -31 -66 -17 -80 17 -17 13 -43 -15 -97 -18
-35 -25 -61 -22 -86 4 -33 1 -37 -34 -55 -89 -45 -158 -134 -158 -204 0 -46
34 -109 74 -140 l37 -28 -31 -18 c-35 -22 -38 -34 -10 -49 43 -23 60 -80 60
-205 l0 -115 -35 0 -35 0 0 -80 c0 -73 -2 -80 -20 -80 -18 0 -20 7 -20 80 l0
80 -40 0 -40 0 0 -80 c0 -64 -3 -80 -15 -80 -12 0 -15 16 -15 80 l0 80 -35 0
-35 0 0 -175 c0 -203 14 -266 81 -354 21 -28 44 -70 50 -94 6 -23 13 -165 16
-315 l5 -272 -85 0 c-100 0 -97 5 -97 -138 0 -162 40 -305 119 -424 l41 -60 0
-434 0 -434 -35 0 -35 0 0 -50 c0 -27 -4 -50 -10 -50 -5 0 -10 23 -10 50 0 47
-2 50 -25 50 -23 0 -25 -3 -25 -50 0 -27 -4 -50 -10 -50 -5 0 -10 23 -10 50 0
42 -3 50 -19 50 -27 0 -31 -18 -31 -140 0 -189 46 -380 123 -508 l40 -66 -12
-505 c-6 -279 -11 -525 -11 -548 l0 -43 -60 0 -60 0 0 -75 c0 -87 23 -158 71
-218 l32 -39 -7 -706 c-3 -389 -9 -746 -12 -795 l-6 -87 -214 0 -214 0 0 -310
0 -310 9950 0 9950 0 0 310 0 310 -90 0 -90 0 0 33 c0 17 -7 529 -15 1137
l-15 1104 39 41 c73 75 111 187 111 328 l0 77 -79 0 c-44 0 -82 3 -84 8 -3 4
-13 347 -22 762 l-18 755 39 60 c77 120 138 289 169 469 15 88 22 407 9 440
-4 10 -18 16 -35 16 l-29 0 0 -70 c0 -40 -4 -70 -10 -70 -6 0 -10 30 -10 70
l0 70 -40 0 -40 0 0 -70 c0 -40 -4 -70 -10 -70 -6 0 -10 30 -10 70 l0 70 -45
0 -45 0 0 606 0 606 34 47 c72 99 133 248 161 395 16 82 23 346 10 386 -6 19
-15 20 -127 20 l-120 0 5 338 c5 420 16 497 82 582 24 30 55 79 69 107 49 99
56 148 56 405 l0 238 -45 0 -45 0 0 -105 0 -105 -25 0 -25 0 0 105 0 105 -55
0 -55 0 0 -110 0 -110 -25 0 -25 0 0 110 0 110 -50 0 -50 0 0 158 c0 146 2
161 25 210 16 35 36 59 59 73 42 25 37 44 -19 79 l-35 21 43 33 c101 77 132
193 81 301 -25 55 -108 134 -181 173 l-62 33 5 47 c5 40 0 58 -30 120 -36 74
-45 116 -26 127 6 3 10 24 10 46 0 30 -6 46 -25 63 -34 31 -32 43 15 91 60 61
62 96 13 187 -65 118 -68 134 -44 230 32 124 26 208 -23 322 -12 28 -13 42 -5
52 6 7 8 18 4 23 -3 6 9 17 27 24 18 8 40 22 48 32 14 17 14 17 -17 2 -52 -27
-98 -22 -139 16 -48 43 -56 97 -22 147 13 19 35 40 48 47 14 7 18 13 10 13
-26 0 -78 -38 -95 -69 -34 -68 -6 -159 59 -186 46 -19 51 -53 21 -130 -34 -87
-40 -165 -20 -255 31 -136 32 -135 -24 -245 -28 -55 -51 -108 -51 -118 0 -28
26 -72 60 -100 37 -31 38 -52 4 -84 -27 -25 -28 -37 -9 -129 5 -24 -1 -46 -26
-95 -25 -49 -33 -78 -34 -122 l-1 -57 -63 -38 c-112 -65 -183 -151 -197 -239
-12 -79 33 -179 106 -232 l40 -29 -40 -26 c-22 -14 -40 -31 -40 -38 0 -6 18
-26 39 -45 66 -56 82 -116 79 -287 l-3 -141 -52 -3 -53 -3 0 -110 0 -109 -25
0 -25 0 0 110 0 110 -55 0 -55 0 0 -105 c0 -98 -1 -105 -20 -105 -19 0 -20 7
-20 105 l0 105 -50 0 -50 0 0 -232 c0 -260 9 -321 61 -419 17 -32 47 -76 66
-98 41 -48 48 -71 68 -213 11 -77 15 -196 15 -408 l0 -300 -119 0 -120 0 -7
-46 c-4 -26 -4 -112 -1 -193 8 -222 62 -400 166 -549 l41 -58 0 -607 0 -607
-40 0 -40 0 0 -70 c0 -56 -3 -70 -15 -70 -12 0 -15 14 -15 70 l0 70 -35 0 -35
0 0 -70 c0 -56 -3 -70 -15 -70 -12 0 -15 14 -15 70 l0 70 -29 0 c-25 0 -29 -4
-35 -38 -11 -70 -6 -294 10 -399 8 -57 26 -143 40 -191 26 -90 106 -269 145
-324 l23 -31 -12 -586 c-7 -322 -15 -666 -19 -763 l-6 -177 -81 -3 -81 -3 -3
-54 c-7 -126 34 -263 104 -339 l44 -50 0 -141 0 -141 -44 34 c-42 32 -168 84
-260 107 -43 11 -44 12 -36 41 5 16 6 36 3 44 -3 8 1 14 10 14 20 0 47 38 47
67 0 12 -11 34 -24 49 -20 24 -22 32 -13 68 5 23 9 93 9 156 0 141 -23 237
-87 367 -92 188 -256 310 -554 414 -79 27 -91 34 -91 55 0 12 -5 26 -11 30 -7
4 -9 22 -6 45 3 21 2 40 -1 43 -3 4 -7 33 -9 66 -3 46 -1 60 10 60 7 0 21 6
31 13 15 11 12 12 -22 9 -31 -3 -45 1 -61 17 -31 31 -28 84 5 110 15 12 21 21
15 21 -22 0 -71 -58 -71 -83 0 -29 33 -73 61 -82 18 -6 19 -12 13 -68 -4 -34
-7 -77 -6 -96 0 -19 -6 -44 -14 -55 -8 -11 -14 -28 -14 -37 0 -11 -27 -24 -92
-46 -118 -39 -263 -101 -336 -145 -72 -42 -178 -148 -221 -221 -44 -76 -79
-164 -96 -245 -16 -75 -19 -266 -5 -326 8 -35 6 -43 -16 -69 -36 -43 -28 -99
18 -116 16 -6 22 -18 25 -48 l4 -40 -42 -7 c-22 -4 -66 -15 -97 -26 -31 -11
-60 -20 -64 -20 -4 0 -8 126 -8 281 l0 280 31 38 c38 48 59 117 59 193 l0 58
-50 0 c-27 0 -51 1 -51 3 -1 1 -7 216 -13 477 l-11 475 32 54 c78 130 126 350
108 501 -6 49 -10 60 -25 60 -15 0 -20 -9 -23 -47 l-3 -48 -2 48 c-2 43 -4 47
-27 47 -22 0 -25 -4 -25 -39 0 -22 -4 -43 -10 -46 -6 -4 -10 12 -10 39 0 42
-2 46 -25 46 l-25 0 0 386 0 385 25 33 c29 38 66 120 86 191 9 31 14 98 14
175 l0 125 -79 3 -79 3 6 222 c3 122 11 244 16 271 6 26 27 70 46 96 58 78 65
112 65 296 l0 164 -25 0 c-24 0 -25 -2 -25 -65 0 -51 -3 -65 -15 -65 -12 0
-15 14 -15 65 l0 65 -35 0 -35 0 0 -70 c0 -56 -3 -70 -15 -70 -12 0 -15 14
-15 70 l0 70 -35 0 -35 0 0 95 c0 108 14 154 55 181 l27 18 -26 23 -27 23 34
33 c89 84 58 211 -68 278 -41 22 -45 27 -45 62 0 21 -9 55 -20 77 -15 29 -18
50 -14 83 5 32 2 47 -10 59 -21 22 -21 25 14 65 17 18 30 39 30 46 0 7 -14 38
-30 69 -35 67 -37 83 -19 166 12 56 11 70 -4 125 -23 80 -23 94 3 115 21 17
20 17 -21 17 -33 0 -46 5 -62 27 -22 29 -18 65 9 92 8 9 11 16 5 16 -15 0 -51
-50 -51 -71 0 -30 21 -66 45 -79 30 -16 36 -39 19 -78 -23 -55 -26 -114 -10
-182 l15 -65 -34 -73 c-37 -78 -36 -100 4 -136 25 -23 26 -32 5 -53 -12 -12
-14 -27 -9 -59 5 -33 1 -52 -14 -83 -12 -22 -21 -57 -21 -78 0 -35 -4 -40 -50
-65 -70 -39 -110 -97 -110 -160 0 -57 18 -98 57 -126 l28 -21 -22 -16 c-29
-20 -29 -36 -2 -53 35 -22 49 -73 49 -177 l0 -95 -35 0 -35 0 0 -70 c0 -56 -3
-70 -15 -70 -12 0 -15 14 -15 70 l0 70 -30 0 -30 0 0 -65 c0 -51 -3 -65 -15
-65 -12 0 -15 14 -15 65 l0 65 -30 0 -30 0 0 -167 c0 -157 2 -171 25 -221 13
-29 35 -67 49 -85 39 -51 47 -105 53 -349 l6 -227 -79 -3 -79 -3 1 -130 c1
-112 4 -141 27 -210 15 -44 42 -104 62 -133 l35 -54 0 -384 0 -384 -25 0 c-23
0 -25 -4 -25 -46 0 -27 -4 -43 -10 -39 -5 3 -10 24 -10 46 0 32 -3 39 -20 39
-17 0 -20 -7 -20 -39 0 -22 -4 -43 -10 -46 -6 -4 -10 12 -10 39 0 38 -3 46
-19 46 -16 0 -19 -10 -25 -67 -15 -166 41 -404 122 -521 19 -26 19 -42 9 -505
l-10 -477 -55 0 -55 0 5 -77 c5 -79 36 -162 72 -192 14 -12 16 -51 16 -302 l0
-289 -225 0 -225 0 0 103 c0 56 -22 972 -49 2036 l-49 1935 20 40 c11 23 43
73 69 111 78 112 75 147 -17 178 l-39 14 -3 91 -3 92 -59 0 -60 0 2 2488 3
2487 29 60 c22 46 59 89 157 185 76 74 136 143 149 169 28 55 37 145 20 196
-14 43 -71 110 -111 131 l-28 14 -3 123 -3 122 -107 3 -108 3 0 283 c0 156 -3
304 -6 329 l-7 47 49 20 c123 52 174 96 174 154 0 55 -115 211 -244 331 l-43
40 -6 122 -5 123 34 21 c56 34 48 64 -41 158 -65 68 -76 84 -80 122 -3 24 -12
116 -20 204 -34 351 -76 632 -126 833 -23 91 -28 127 -20 135 6 6 11 31 11 55
0 36 -5 49 -30 72 -36 34 -40 80 -10 110 24 24 26 77 4 108 -12 18 -14 40 -11
105 3 45 8 98 12 118 6 31 3 39 -19 56 -23 19 -26 28 -26 85 l0 65 40 12 c42
13 94 51 111 83 10 18 7 17 -22 -5 -121 -91 -276 -25 -287 121 -6 82 24 134
103 177 l30 17 -30 -7 c-89 -19 -155 -89 -163 -175 -9 -99 50 -187 144 -212
l44 -12 0 -63 c0 -53 -4 -66 -25 -87 -31 -31 -32 -69 -4 -97 19 -19 21 -29 16
-91 -5 -55 -10 -73 -28 -87 -33 -26 -32 -87 1 -113 32 -26 29 -75 -5 -101 -13
-10 -29 -33 -35 -53 -10 -29 -9 -41 8 -75 l20 -39 -28 -113 c-77 -306 -131
-610 -164 -935 l-15 -143 -61 -66 c-68 -72 -100 -119 -100 -145 0 -20 29 -38
59 -38 20 0 21 -5 21 -119 l0 -119 -55 -42 c-125 -96 -273 -279 -282 -349 -9
-63 48 -112 165 -142 l52 -13 0 -343 0 -343 -110 0 -110 0 0 -124 0 -123 -44
-17 c-85 -33 -159 -133 -159 -218 0 -82 95 -218 181 -259 107 -51 155 -109
199 -244 l25 -80 -2 -390 c-4 -846 -47 -4485 -53 -4491 -3 -3 -21 -9 -39 -13
l-33 -7 -3 -80 -3 -81 -66 -6 c-47 -5 -73 -12 -86 -26 -19 -19 -19 -20 34
-118 110 -204 100 -164 93 -362 -4 -144 -94 -3854 -94 -3906 0 -12 -13 -15
-65 -15 l-64 0 -3 538 c-3 503 -4 539 -22 575 -28 57 -100 132 -171 179 -55
36 -62 43 -48 53 10 7 14 19 10 29 -4 9 -1 25 5 36 9 14 9 22 -1 34 -10 12 -8
17 16 29 41 22 63 50 70 89 7 44 -18 100 -53 118 -15 9 -23 19 -19 28 22 59
37 219 32 357 -13 337 -130 620 -346 835 -98 97 -188 160 -347 241 -111 56
-319 142 -427 175 -55 17 -58 19 -64 57 -3 21 -13 45 -22 54 -17 18 -18 30 -6
86 5 24 3 42 -4 51 -7 8 -11 31 -10 53 0 21 -2 64 -6 96 -8 56 -7 57 16 57 26
0 95 38 85 47 -3 3 -13 0 -21 -7 -9 -7 -35 -13 -58 -13 -142 0 -170 188 -36
240 l34 13 -40 -6 c-96 -14 -152 -112 -110 -193 17 -33 70 -81 91 -81 11 0 13
-20 11 -100 -1 -55 -5 -100 -8 -100 -15 0 -18 -34 -8 -75 10 -38 9 -45 -9 -63
-10 -10 -22 -37 -25 -58 l-7 -39 -122 -39 c-233 -73 -475 -180 -608 -268 -250
-165 -427 -454 -484 -787 -20 -121 -21 -330 0 -448 l15 -90 -35 -35 c-20 -20
-36 -47 -37 -60 -4 -77 15 -113 72 -136 32 -12 37 -18 29 -33 -7 -12 -6 -22 4
-31 11 -11 11 -17 1 -31 -11 -15 -39 -17 -261 -17 l-248 0 45 29 c98 63 143
144 144 256 0 107 -50 195 -152 265 -22 15 -21 16 59 105 268 299 400 553 455
875 23 136 23 481 0 607 -56 298 -177 537 -377 741 -163 166 -292 262 -695
520 -306 194 -403 262 -540 375 -170 142 -305 308 -393 483 l-40 80 31 10 c35
10 48 44 27 69 -10 12 -7 21 14 45 36 43 50 100 36 150 -12 45 -68 107 -105
116 -20 5 -23 9 -15 24 15 28 12 48 -10 70 -20 20 -20 31 -18 337 l3 317 75
12 c82 14 223 78 255 116 l20 22 -25 -15 c-93 -58 -242 -81 -353 -55 -206 48
-353 205 -389 414 -33 197 80 420 260 511 66 33 165 61 221 61 19 0 32 2 29 5
-3 3 -48 6 -99 6 -249 0 -449 -148 -521 -384 -27 -89 -22 -253 10 -335 73
-189 246 -326 439 -349 l53 -6 0 -319 c0 -311 -1 -320 -21 -348 -21 -27 -21
-31 -6 -53 16 -24 15 -25 -14 -31 -42 -8 -94 -63 -109 -113 -17 -57 -6 -107
36 -153 27 -30 33 -44 29 -63 -5 -20 -1 -29 19 -42 l26 -17 -40 -77 c-52 -100
-151 -232 -253 -338 -156 -162 -305 -272 -864 -633 -217 -140 -349 -242 -471
-363 -213 -210 -331 -423 -394 -709 -20 -92 -23 -130 -22 -353 0 -219 2 -262
22 -351 67 -309 219 -594 468 -880 36 -41 64 -76 62 -78 -89 -56 -139 -115
-159 -190 -6 -23 -9 -71 -7 -108 8 -104 57 -177 164 -245 15 -9 -26 -12 -198
-12 -207 -1 -218 0 -228 19 -8 15 -8 20 1 20 8 0 10 12 6 35 -4 25 -2 35 7 35
25 0 65 41 75 75 13 47 -2 98 -39 128 l-29 25 16 79 c25 120 22 370 -5 498
-72 336 -236 594 -483 757 -138 91 -431 227 -624 288 -44 14 -66 36 -58 58 3
7 -4 27 -16 43 -22 29 -24 62 -6 102 4 10 2 23 -5 31 -6 8 -13 59 -16 114 l-4
100 33 6 c19 3 45 18 58 33 l24 26 -28 -18 c-32 -20 -93 -23 -126 -6 -31 17
-61 70 -61 109 0 48 28 89 75 112 45 22 22 28 -28 6 -54 -23 -80 -59 -84 -118
-5 -67 21 -113 77 -136 l40 -17 -6 -95 c-3 -52 -10 -100 -16 -107 -6 -8 -7
-27 -3 -50 12 -58 11 -67 -9 -84 -10 -8 -18 -27 -18 -42 0 -15 -4 -27 -9 -27
-5 0 -9 -6 -9 -13 0 -9 -30 -23 -77 -36 -203 -59 -518 -197 -648 -284 -250
-168 -417 -435 -482 -772 -23 -120 -23 -369 0 -480 15 -70 15 -80 2 -88 -88
-49 -81 -166 12 -213 32 -16 39 -24 30 -33 -9 -9 -9 -16 0 -30 7 -10 9 -29 6
-41 -3 -12 -1 -25 6 -29 8 -5 -13 -26 -58 -59 -38 -28 -88 -74 -110 -102 -72
-91 -71 -80 -71 -757 l0 -603 -30 0 c-16 0 -30 1 -30 3 0 1 -25 958 -55 2126
l-53 2125 20 40 c11 23 43 73 69 111 78 112 75 147 -17 178 l-39 14 -3 91 -3
92 -59 0 -60 0 2 2488 3 2487 29 60 c22 46 59 89 157 185 76 74 136 143 149
169 28 55 37 145 20 196 -14 43 -71 110 -111 131 l-28 14 -3 123 -3 122 -107
3 -108 3 0 283 c0 156 -3 304 -6 329 l-7 47 49 20 c123 52 174 96 174 154 0
55 -115 211 -244 331 l-43 40 -6 122 -5 123 34 21 c56 34 48 64 -41 158 -65
68 -76 84 -80 122 -3 24 -12 116 -20 204 -34 351 -76 632 -126 833 -23 91 -28
127 -20 135 6 6 11 31 11 55 0 36 -5 49 -30 72 -36 34 -40 80 -10 110 24 24
26 77 4 108 -12 18 -14 40 -11 105 3 45 8 98 12 118 6 31 3 39 -19 56 -23 19
-26 28 -26 85 l0 65 40 12 c42 13 94 51 111 83 10 18 7 17 -22 -5 -121 -91
-276 -25 -287 121 -6 83 25 136 103 176 34 18 17 19 -34 3z m-161 -2742 l0
-135 -25 0 -25 0 0 135 0 135 25 0 25 0 0 -135z m130 0 l0 -135 -25 0 -25 0 0
135 0 135 25 0 25 0 0 -135z m138 -2 l3 -133 -31 0 -30 0 0 128 c0 71 3 132 7
136 4 4 16 6 28 4 19 -3 20 -11 23 -135z m120 0 l3 -133 -31 0 -30 0 0 128 c0
71 3 132 7 136 4 4 16 6 28 4 19 -3 20 -11 23 -135z m122 2 l0 -135 -25 0 -25
0 0 135 0 135 25 0 25 0 0 -135z m10400 0 l0 -135 -25 0 -25 0 0 135 0 135 25
0 25 0 0 -135z m130 0 l0 -135 -25 0 -25 0 0 135 0 135 25 0 25 0 0 -135z
m138 -2 l3 -133 -31 0 -30 0 0 128 c0 71 3 132 7 136 4 4 16 6 28 4 19 -3 20
-11 23 -135z m120 0 l3 -133 -31 0 -30 0 0 128 c0 71 3 132 7 136 4 4 16 6 28
4 19 -3 20 -11 23 -135z m122 2 l0 -135 -25 0 -25 0 0 135 0 135 25 0 25 0 0
-135z m-11710 -1655 l0 -170 -40 0 -40 0 0 170 0 170 40 0 40 0 0 -170z m200
0 l0 -170 -40 0 -40 0 0 170 0 170 40 0 40 0 0 -170z m210 0 l0 -170 -40 0
-40 0 0 170 0 170 40 0 40 0 0 -170z m180 0 l0 -170 -40 0 -40 0 0 170 0 170
40 0 40 0 0 -170z m170 0 l0 -170 -40 0 -40 0 0 170 0 170 40 0 40 0 0 -170z
m180 0 l0 -170 -40 0 -40 0 0 170 0 170 40 0 40 0 0 -170z m160 0 l0 -170 -40
0 -40 0 0 170 0 170 40 0 40 0 0 -170z m9810 0 l0 -170 -40 0 -40 0 0 170 0
170 40 0 40 0 0 -170z m200 0 l0 -170 -40 0 -40 0 0 170 0 170 40 0 40 0 0
-170z m210 0 l0 -170 -40 0 -40 0 0 170 0 170 40 0 40 0 0 -170z m180 0 l0
-170 -40 0 -40 0 0 170 0 170 40 0 40 0 0 -170z m170 0 l0 -170 -40 0 -40 0 0
170 0 170 40 0 40 0 0 -170z m180 0 l0 -170 -40 0 -40 0 0 170 0 170 40 0 40
0 0 -170z m160 0 l0 -170 -40 0 -40 0 0 170 0 170 40 0 40 0 0 -170z m-11444
-739 c23 -10 54 -36 70 -57 l29 -37 3 -384 3 -383 -181 0 -180 0 0 348 c0 201
4 362 10 383 16 57 51 102 100 127 54 27 92 28 146 3z m10910 0 c23 -10 54
-36 70 -57 l29 -37 3 -384 3 -383 -181 0 -180 0 0 348 c0 201 4 362 10 383 16
57 51 102 100 127 54 27 92 28 146 3z m-10892 -1455 c23 -13 51 -42 64 -64 22
-39 22 -45 22 -416 l0 -376 -177 2 -178 3 0 365 c0 362 0 365 23 412 46 93
157 126 246 74z m10910 0 c23 -13 51 -42 64 -64 22 -39 22 -45 22 -416 l0
-376 -177 2 -178 3 0 365 c0 362 0 365 23 412 46 93 157 126 246 74z m-10892
-1577 c16 -11 37 -38 48 -59 19 -37 20 -60 20 -410 l0 -370 -180 0 -181 0 3
363 3 363 25 49 c51 98 172 127 262 64z m10910 0 c16 -11 37 -38 48 -59 19
-37 20 -60 20 -410 l0 -370 -180 0 -181 0 3 363 3 363 25 49 c51 98 172 127
262 64z m4350 -540 c19 -93 22 -137 22 -424 l1 -320 -65 0 -65 0 1 305 c0 304
8 394 45 534 9 34 12 37 25 24 8 -8 24 -61 36 -119z m-257 14 c15 -87 20 -172
23 -435 l3 -328 -55 0 -56 0 0 288 c0 158 5 319 10 357 14 99 42 225 49 225 4
0 16 -48 26 -107z m496 -51 c16 -95 19 -163 19 -413 l0 -299 -55 0 -55 0 0
283 c0 230 4 308 20 422 11 77 23 147 26 155 9 24 23 -21 45 -148z m-16017
-1428 c13 -13 16 -45 16 -195 l0 -179 -49 0 -50 0 -3 178 c-2 141 0 181 11
195 18 21 54 22 75 1z m230 0 c13 -13 16 -45 16 -195 l0 -179 -50 0 -50 0 0
149 c0 82 -3 162 -6 178 -10 53 52 85 90 47z m210 0 c13 -13 16 -45 16 -195
l0 -179 -50 0 -49 0 -3 173 c-3 188 3 217 47 217 13 0 31 -7 39 -16z m216 -3
c6 -12 10 -93 10 -195 l0 -176 -50 0 -50 0 0 183 c0 129 4 187 12 195 19 19
66 15 78 -7z m224 3 c13 -13 16 -45 16 -195 l0 -179 -50 0 -49 0 -3 173 c-3
188 3 217 47 217 13 0 31 -7 39 -16z m10030 0 c13 -13 16 -45 16 -195 l0 -179
-49 0 -50 0 -3 178 c-2 141 0 181 11 195 18 21 54 22 75 1z m230 0 c13 -13 16
-45 16 -195 l0 -179 -50 0 -50 0 0 149 c0 82 -3 162 -6 178 -10 53 52 85 90
47z m210 0 c13 -13 16 -45 16 -195 l0 -179 -50 0 -49 0 -3 173 c-3 188 3 217
47 217 13 0 31 -7 39 -16z m216 -3 c6 -12 10 -93 10 -195 l0 -176 -50 0 -50 0
0 183 c0 129 4 187 12 195 19 19 66 15 78 -7z m224 3 c13 -13 16 -45 16 -195
l0 -179 -50 0 -49 0 -3 173 c-3 188 3 217 47 217 13 0 31 -7 39 -16z m863
-551 l6 -213 -38 0 -37 0 5 233 c3 152 9 247 18 277 l13 45 14 -65 c7 -36 16
-161 19 -277z m143 272 c6 -27 14 -148 17 -267 l5 -218 -46 0 -46 0 0 168 c0
151 19 346 36 374 10 16 21 -3 34 -57z m150 -20 c6 -33 14 -151 17 -262 l6
-203 -37 0 -36 0 0 200 c0 196 15 366 30 339 5 -8 13 -41 20 -74z m-15635
-525 c10 -65 15 -165 15 -312 l0 -218 -41 0 -41 0 5 248 c3 136 10 267 16 292
6 25 14 56 17 69 3 13 7 21 9 19 2 -2 11 -46 20 -98z m173 58 c23 -92 33 -221
30 -398 l-3 -185 -47 -3 -48 -3 0 208 c0 199 9 304 31 386 13 48 24 47 37 -5z
m187 -101 c9 -66 15 -175 15 -296 l0 -191 -40 0 -40 0 0 223 c0 198 6 282 27
382 5 28 6 29 14 8 4 -12 15 -69 24 -126z m18141 104 c59 -36 64 -62 64 -335
l0 -246 -25 0 c-24 0 -25 -2 -25 -70 0 -40 -4 -70 -10 -70 -6 0 -10 30 -10 70
l0 70 -65 0 -65 0 0 -70 c0 -56 -3 -70 -15 -70 -12 0 -15 14 -15 70 0 68 -1
70 -25 70 l-25 0 0 233 c0 127 5 249 10 269 6 20 26 50 46 67 28 25 43 31 82
31 28 0 59 -8 78 -19z m-2981 -946 c25 -24 25 -27 25 -190 0 -140 -2 -165 -15
-165 -11 0 -15 -13 -17 -47 l-2 -48 -3 48 -4 47 -45 0 -44 0 -2 -47 -2 -48 -3
48 c-3 33 -8 47 -19 47 -12 0 -14 28 -14 165 0 163 0 166 25 190 16 17 35 25
60 25 25 0 44 -8 60 -25z m-11191 -541 c21 -8 21 -40 0 -48 -21 -8 -34 1 -34
23 0 28 9 34 34 25z m6464 -18 c5 -24 -10 -38 -31 -30 -20 7 -22 25 -5 42 16
16 32 10 36 -12z m-5998 -1 c10 -12 10 -18 0 -30 -10 -12 -6 -22 24 -56 47
-56 77 -137 84 -226 l5 -73 -132 0 c-153 0 -144 -10 -111 128 21 89 38 128 77
180 20 26 22 36 13 47 -10 12 -10 18 0 30 7 8 16 15 20 15 4 0 13 -7 20 -15z
m498 3 c7 -7 8 -17 1 -29 -7 -14 0 -32 31 -80 49 -75 70 -143 70 -221 l0 -58
-131 0 -131 0 7 43 c14 81 56 196 91 247 28 41 33 54 23 66 -9 11 -9 17 1 29
15 18 22 19 38 3z m476 6 c18 -7 22 -40 4 -46 -7 -3 3 -24 25 -56 46 -68 73
-141 82 -225 l7 -67 -137 0 c-125 0 -136 1 -132 18 3 9 8 35 12 57 11 72 46
164 81 215 19 28 31 56 28 65 -6 15 1 45 10 45 2 0 11 -3 20 -6z m473 -10 c3
-9 1 -25 -5 -34 -8 -14 -7 -21 7 -34 49 -45 101 -181 101 -268 l0 -48 -130 0
c-150 0 -143 -7 -114 109 21 84 54 157 88 198 24 28 25 34 14 53 -11 17 -11
22 2 30 21 14 30 12 37 -6z m4997 10 c18 -7 22 -44 6 -44 -6 0 8 -24 30 -54
51 -67 80 -147 83 -229 l2 -62 -130 0 -130 0 3 40 c8 99 55 223 103 274 15 16
19 26 11 29 -13 4 -16 34 -5 45 8 8 8 8 27 1z m506 -9 c10 -12 10 -18 1 -29
-10 -12 -5 -25 24 -65 45 -62 74 -143 82 -227 l6 -64 -135 0 -136 0 13 68 c22
109 64 210 103 246 17 14 19 22 10 36 -12 18 -5 50 10 50 5 0 15 -7 22 -15z
m487 -1 c3 -9 2 -24 -4 -32 -7 -12 -2 -27 23 -59 43 -56 74 -143 81 -225 l6
-68 -132 0 c-153 0 -145 -8 -112 123 23 86 52 150 88 188 22 24 23 29 11 48
-11 18 -11 23 2 31 21 14 30 12 37 -6z m463 1 c10 -11 10 -18 1 -29 -9 -11 -3
-27 29 -77 49 -75 70 -143 70 -221 l0 -58 -130 0 c-84 0 -130 4 -130 11 0 5 7
42 16 82 20 85 52 163 90 212 22 29 24 38 14 50 -10 12 -10 18 0 30 7 8 16 15
20 15 4 0 13 -7 20 -15z m-8343 -73 c55 -75 93 -185 93 -272 l0 -40 -130 0
-130 0 0 33 c0 39 34 167 57 211 24 47 63 96 77 96 7 0 22 -13 33 -28z m6457
-5 c48 -63 78 -143 83 -228 l6 -79 -132 0 c-153 0 -145 -8 -112 123 28 108 86
217 116 217 8 0 25 -15 39 -33z m-10584 -92 c25 -25 25 -28 28 -215 3 -186 3
-190 -17 -190 -18 0 -21 -7 -23 -52 l-2 -53 -3 53 -4 52 -50 0 -49 0 0 -50 c0
-27 -4 -50 -10 -50 -5 0 -10 23 -10 50 0 38 -4 50 -15 50 -13 0 -15 27 -15
184 0 172 1 185 21 210 41 52 103 56 149 11z m736 -324 c-3 -4 6 -29 19 -56
14 -27 25 -61 25 -77 0 -28 -1 -28 -61 -28 -53 0 -60 2 -55 18 2 9 7 31 11 49
3 18 15 43 26 57 11 14 19 28 18 33 -3 17 1 24 11 18 6 -4 8 -10 6 -14z m227
-49 c15 -32 27 -70 27 -85 0 -26 -2 -27 -60 -27 l-60 0 6 28 c12 56 25 91 39
102 8 6 11 18 8 26 -3 8 -1 14 3 14 5 0 21 -26 37 -58z m207 48 c0 -5 -4 -10
-10 -10 -5 0 -10 5 -10 10 0 6 5 10 10 10 6 0 10 -4 10 -10z m217 -2 c-2 -7 5
-26 16 -42 11 -16 22 -50 25 -77 l5 -49 -58 0 -58 0 5 38 c6 42 49 141 61 142
5 0 7 -6 4 -12z m213 2 c0 -5 -4 -10 -10 -10 -5 0 -10 5 -10 10 0 6 5 10 10
10 6 0 10 -4 10 -10z m-408 -61 c10 -18 19 -50 20 -69 l3 -35 -57 -3 c-56 -3
-58 -2 -58 23 0 27 23 90 42 112 16 20 31 12 50 -28z m430 5 c9 -16 18 -47 20
-69 l3 -40 -57 -3 c-56 -3 -58 -2 -58 23 0 27 23 90 42 112 15 19 30 12 50
-23z m2407 -26 c0 -13 -4 -32 -8 -43 -7 -16 -9 -14 -14 14 -4 18 -4 37 -1 42
10 17 24 9 23 -13z m334 10 c5 -18 -3 -48 -14 -48 -5 0 -9 14 -9 30 0 30 15
41 23 18z m337 3 c0 -5 -3 -24 -7 -42 -7 -33 -7 -33 -14 -9 -12 41 -10 60 6
60 8 0 15 -4 15 -9z m330 -21 c0 -33 -15 -41 -22 -12 -6 21 1 42 13 42 5 0 9
-13 9 -30z m334 21 c3 -5 3 -24 -1 -42 -5 -28 -7 -30 -14 -14 -16 43 -4 87 15
56z m336 -23 c0 -30 0 -31 20 -13 18 16 20 16 20 2 0 -10 -3 -18 -7 -18 -44
-8 -51 -5 -56 20 -6 28 -1 41 14 41 5 0 9 -14 9 -32z m340 2 c0 -33 -15 -41
-22 -12 -6 21 1 42 13 42 5 0 9 -13 9 -30z m4440 0 c0 -16 -4 -30 -10 -30 -5
0 -10 14 -10 30 0 17 5 30 10 30 6 0 10 -13 10 -30z m340 21 c0 -5 -3 -23 -7
-42 -5 -28 -7 -30 -14 -14 -13 34 -10 65 6 65 8 0 15 -4 15 -9z m330 -23 c0
-30 0 -31 20 -13 18 16 20 16 20 2 0 -10 -3 -18 -7 -18 -44 -8 -51 -5 -56 20
-6 28 -1 41 14 41 5 0 9 -14 9 -32z m334 23 c3 -5 3 -24 -1 -42 -5 -28 -7 -30
-14 -14 -16 43 -4 87 15 56z m336 -13 c0 -13 -4 -29 -9 -36 -6 -10 -10 -7 -15
13 -4 14 -4 30 -1 35 11 18 25 10 25 -12z m334 4 c-1 -7 -2 -22 -3 -34 -1 -19
-3 -20 -11 -8 -14 22 -12 62 3 58 6 -3 12 -10 11 -16z m340 9 c3 -5 3 -24 -1
-42 -5 -28 -7 -30 -14 -14 -16 43 -4 87 15 56z m-8504 -42 c11 -19 10 -20 -9
-9 -12 6 -21 15 -21 20 0 18 19 11 30 -11z m80 13 c0 -11 -22 -32 -32 -32 -5
0 -4 9 2 20 11 20 30 28 30 12z m260 -24 c0 -5 -9 -4 -20 2 -11 6 -18 15 -14
21 6 11 34 -7 34 -23z m65 6 c-23 -17 -32 -10 -15 11 7 8 17 12 23 8 6 -4 3
-11 -8 -19z m265 5 c11 -19 10 -20 -9 -9 -22 11 -29 30 -11 30 5 0 14 -9 20
-21z m80 11 c0 -5 -9 -14 -21 -20 -19 -11 -20 -10 -9 9 11 22 30 29 30 11z
m260 -22 c0 -5 -9 -4 -20 2 -11 6 -18 15 -14 21 6 11 34 -7 34 -23z m65 6
c-23 -17 -32 -10 -15 11 7 8 17 12 23 8 6 -4 3 -11 -8 -19z m265 6 c6 -11 7
-20 2 -20 -10 0 -32 21 -32 32 0 16 19 8 30 -12z m80 10 c0 -5 -9 -14 -20 -20
-22 -12 -27 -1 -8 18 14 14 28 16 28 2z m248 -2 c19 -19 14 -30 -8 -18 -11 6
-20 15 -20 20 0 14 14 12 28 -2z m352 -20 c0 -5 -9 -4 -20 2 -11 6 -18 15 -14
21 6 11 34 -7 34 -23z m65 6 c-23 -17 -32 -10 -15 11 7 8 17 12 23 8 6 -4 3
-11 -8 -19z m4375 -6 c0 -5 -9 -4 -20 2 -11 6 -18 15 -14 21 6 11 34 -7 34
-23z m65 6 c-23 -17 -32 -10 -15 11 7 8 17 12 23 8 6 -4 3 -11 -8 -19z m265 6
c6 -11 7 -20 2 -20 -10 0 -32 21 -32 32 0 16 19 8 30 -12z m80 10 c0 -5 -9
-14 -21 -20 -19 -11 -20 -10 -9 9 11 22 30 29 30 11z m248 -2 c19 -19 14 -30
-8 -18 -11 6 -20 15 -20 20 0 14 14 12 28 -2z m343 -10 c10 -18 9 -20 -6 -15
-9 4 -19 7 -21 7 -2 0 -4 7 -4 15 0 22 18 18 31 -7z m79 12 c0 -5 -9 -14 -20
-20 -22 -12 -27 -1 -8 18 14 14 28 16 28 2z m248 -2 c19 -19 14 -30 -8 -18
-11 6 -20 15 -20 20 0 14 14 12 28 -2z m82 -3 c0 -8 -2 -15 -4 -15 -2 0 -12
-3 -21 -7 -15 -5 -16 -3 -6 15 13 25 31 29 31 7z m260 -17 c0 -5 -9 -4 -20 2
-11 6 -18 15 -14 21 6 11 34 -7 34 -23z m80 22 c0 -5 -9 -14 -20 -20 -22 -12
-27 -1 -8 18 14 14 28 16 28 2z m264 -17 c5 -11 2 -13 -10 -9 -8 3 -18 6 -20
6 -2 0 -4 7 -4 15 0 18 26 9 34 -12z m76 17 c0 -5 -9 -14 -20 -20 -22 -12 -27
-1 -8 18 14 14 28 16 28 2z m-8682 -12 c-6 -18 -28 -21 -28 -4 0 9 7 16 16 16
9 0 14 -5 12 -12z m67 1 c4 -6 4 -13 0 -17 -4 -4 -10 -1 -12 6 -8 20 -23 14
-24 -10 0 -13 -3 -17 -6 -10 -12 31 25 59 42 31z m221 -1 c5 -7 3 -8 -6 -3 -7
4 -16 2 -21 -6 -7 -11 -9 -10 -9 4 0 19 25 23 36 5z m49 -18 c-5 -8 -11 -8
-17 -2 -6 6 -7 16 -3 22 5 8 11 8 17 2 6 -6 7 -16 3 -22z m63 13 c2 -7 -1 -13
-8 -13 -6 0 -9 4 -5 9 3 5 -3 12 -12 15 -15 4 -15 5 1 3 11 -1 21 -8 24 -14z
m229 0 c4 -10 -2 -23 -15 -33 -19 -16 -20 -19 -6 -30 12 -11 17 -10 28 5 15
21 46 14 46 -11 0 -15 2 -15 23 2 l22 19 -19 -22 c-22 -27 -62 -30 -94 -7 -12
8 -22 12 -23 7 0 -4 -4 2 -9 15 -7 16 -18 22 -40 22 -17 0 -32 -6 -34 -12 -15
-50 -19 -54 -25 -23 -5 24 -12 31 -35 33 -16 2 -32 0 -35 -5 -3 -4 -17 -17
-31 -28 l-25 -20 17 20 c16 20 16 21 -2 33 -11 7 -20 18 -20 25 0 6 5 4 11 -5
8 -14 18 -16 54 -11 29 4 50 1 60 -7 12 -10 18 -10 30 0 8 7 34 10 62 8 39 -2
48 0 51 15 2 10 -3 17 -13 17 -9 0 -13 -4 -10 -10 3 -5 1 -10 -4 -10 -12 0
-14 13 -4 23 12 13 34 7 40 -10z m38 -13 c-5 -8 -11 -8 -17 -2 -6 6 -7 16 -3
22 5 8 11 8 17 2 6 -6 7 -16 3 -22z m70 19 c4 -6 4 -13 0 -17 -4 -4 -10 -1
-12 6 -7 19 -23 14 -23 -8 0 -19 4 -20 48 -14 37 5 52 2 64 -10 15 -14 17 -14
29 0 10 12 24 15 60 10 34 -5 49 -3 52 6 4 10 6 10 6 1 1 -7 -8 -17 -19 -23
-11 -6 -20 -17 -20 -25 0 -7 -4 -16 -8 -19 -4 -2 -8 8 -7 22 0 21 -5 28 -23
30 -13 2 -30 -2 -38 -8 -19 -16 -18 -41 1 -34 8 4 15 2 15 -3 0 -5 -16 -9 -35
-9 -34 0 -45 9 -26 20 5 4 12 0 14 -6 4 -9 6 -7 6 3 1 23 -24 41 -51 37 -18
-2 -23 -9 -23 -30 1 -14 -3 -24 -7 -22 -4 3 -8 12 -8 19 0 8 -9 19 -20 25 -19
10 -27 40 -13 53 10 10 31 8 38 -4z m221 -1 c5 -7 3 -8 -6 -3 -7 4 -16 2 -21
-6 -4 -7 -11 -10 -14 -7 -10 10 4 28 20 28 8 0 17 -5 21 -12z m49 -18 c-5 -8
-11 -8 -17 -2 -6 6 -7 16 -3 22 5 8 11 8 17 2 6 -6 7 -16 3 -22z m63 13 c2 -7
-1 -13 -8 -13 -6 0 -9 4 -5 9 3 5 -3 12 -12 15 -15 4 -15 5 1 3 11 -1 21 -8
24 -14z m209 10 c-9 -2 -15 -9 -12 -14 4 -5 1 -9 -4 -9 -12 0 -14 13 -4 23 3
4 13 6 22 6 13 -1 12 -2 -2 -6z m58 -23 c-5 -8 -11 -8 -17 -2 -6 6 -7 16 -3
22 5 8 11 8 17 2 6 -6 7 -16 3 -22z m70 19 c4 -6 4 -13 0 -17 -3 -3 -10 0 -14
7 -5 8 -14 10 -21 6 -9 -5 -11 -4 -6 3 9 15 33 15 41 1z m222 -19 c1 -22 1
-22 -4 -2 -5 24 -19 29 -26 10 -2 -7 -8 -10 -12 -6 -11 11 5 29 23 26 10 -2
18 -14 19 -28z m48 0 c-5 -8 -11 -8 -17 -2 -6 6 -7 16 -3 22 5 8 11 8 17 2 6
-6 7 -16 3 -22z m63 13 c2 -7 -1 -13 -8 -13 -6 0 -8 5 -5 10 3 6 -1 10 -9 10
-9 0 -16 -7 -16 -17 0 -9 -3 -14 -6 -10 -4 3 -4 13 0 22 7 19 37 17 44 -2z
m227 0 c4 -12 -1 -24 -14 -34 -18 -15 -19 -17 -3 -34 15 -16 14 -16 -10 1 -15
10 -28 22 -28 27 0 4 -13 7 -30 7 -29 0 -52 -23 -43 -45 2 -6 -8 -11 -22 -11
-25 0 -33 10 -16 20 5 4 12 0 15 -6 3 -7 4 -2 3 12 -2 20 -8 26 -35 28 -27 3
-35 -1 -39 -18 -5 -19 -6 -19 -18 -3 -11 15 -11 19 3 25 27 11 77 9 90 -4 8
-8 15 -8 26 1 9 8 35 11 63 9 36 -2 48 0 48 11 0 8 -6 16 -14 19 -8 3 -11 0
-7 -7 4 -6 2 -11 -3 -11 -6 0 -11 7 -11 15 0 21 36 19 45 -2z m50 -13 c-5 -8
-11 -8 -17 -2 -6 6 -7 16 -3 22 5 8 11 8 17 2 6 -6 7 -16 3 -22z m63 13 c2 -7
-1 -13 -8 -13 -6 0 -9 4 -5 9 3 5 -3 12 -12 15 -15 4 -15 5 1 3 11 -1 21 -8
24 -14z m209 10 c-9 -2 -15 -9 -12 -14 4 -5 1 -9 -4 -9 -12 0 -14 13 -4 23 3
4 13 6 22 6 13 -1 12 -2 -2 -6z m68 -23 c-5 -8 -11 -8 -17 -2 -6 6 -7 16 -3
22 5 8 11 8 17 2 6 -6 7 -16 3 -22z m4095 14 c0 -17 -22 -14 -28 4 -2 7 3 12
12 12 9 0 16 -7 16 -16z m68 -1 c2 -7 -1 -13 -8 -13 -6 0 -9 4 -5 9 3 5 -3 12
-12 15 -15 4 -15 5 1 3 11 -1 21 -8 24 -14z m209 10 c-9 -2 -15 -9 -12 -14 4
-5 1 -9 -4 -9 -12 0 -14 13 -4 23 3 4 13 6 22 6 13 -1 12 -2 -2 -6z m58 -23
c-5 -8 -11 -8 -17 -2 -6 6 -7 16 -3 22 5 8 11 8 17 2 6 -6 7 -16 3 -22z m70
19 c4 -6 4 -13 0 -17 -3 -3 -10 0 -14 7 -5 8 -14 10 -21 6 -9 -5 -11 -4 -6 3
9 15 33 15 41 1z m223 -16 c2 -14 -4 -26 -17 -33 -12 -6 -21 -17 -21 -25 0 -7
-4 -16 -8 -19 -4 -2 -8 8 -7 22 0 21 -5 28 -23 30 -13 2 -30 -2 -38 -8 -19
-16 -18 -41 1 -34 8 4 15 2 15 -3 0 -5 -16 -9 -35 -9 -23 0 -35 5 -35 14 0 12
3 12 15 2 12 -10 15 -10 15 3 0 21 -25 39 -52 35 -18 -2 -23 -9 -23 -30 1 -14
-3 -24 -7 -22 -4 3 -8 11 -8 18 0 8 -9 20 -20 27 -19 13 -16 14 33 17 38 1 58
-2 67 -13 11 -13 14 -13 28 1 12 12 27 15 64 10 44 -6 48 -5 48 14 0 22 -16
27 -23 8 -2 -7 -8 -10 -12 -6 -11 11 5 29 23 26 10 -2 18 -13 20 -25z m47 -3
c-5 -8 -11 -8 -17 -2 -6 6 -7 16 -3 22 5 8 11 8 17 2 6 -6 7 -16 3 -22z m63
13 c2 -7 -1 -13 -8 -13 -6 0 -8 5 -5 10 3 6 -1 10 -10 10 -10 0 -15 -7 -13
-17 3 -15 12 -17 51 -15 28 2 54 -1 62 -8 12 -10 18 -10 30 0 8 7 34 10 62 8
36 -2 48 0 48 11 0 8 -6 16 -14 19 -8 3 -11 0 -7 -7 4 -6 2 -11 -3 -11 -6 0
-11 7 -11 15 0 21 36 19 45 -2 4 -12 -1 -24 -14 -34 -18 -15 -19 -17 -3 -35
15 -16 14 -16 -8 1 -14 11 -28 24 -31 28 -3 5 -19 7 -35 5 -22 -2 -30 -9 -34
-28 -7 -34 -26 -35 -25 -2 0 23 -5 27 -33 30 -26 3 -34 -1 -41 -20 -6 -13 -10
-17 -10 -10 -1 8 -11 22 -23 31 -14 12 -19 24 -15 35 8 19 38 18 45 -1z m267
-13 c-5 -8 -11 -8 -17 -2 -6 6 -7 16 -3 22 5 8 11 8 17 2 6 -6 7 -16 3 -22z
m65 13 c0 -14 -2 -15 -9 -4 -5 8 -14 10 -21 6 -9 -5 -11 -4 -6 3 11 18 36 14
36 -5z m227 -13 c1 -22 1 -22 -4 -2 -5 24 -19 29 -26 10 -2 -7 -8 -10 -12 -6
-11 11 5 29 23 26 10 -2 18 -14 19 -28z m48 12 c0 -18 -20 -15 -23 4 -3 10 1
15 10 12 7 -3 13 -10 13 -16z m63 1 c2 -7 -1 -13 -8 -13 -6 0 -8 5 -5 10 3 6
-1 10 -9 10 -10 0 -16 -9 -17 -22 0 -13 -3 -17 -6 -10 -8 20 5 44 24 40 9 -2
18 -9 21 -15z m223 0 c13 -17 12 -17 -4 -4 -16 13 -20 13 -28 0 -7 -11 -9 -11
-9 4 0 9 6 17 14 17 7 0 20 -8 27 -17z m44 -13 c-5 -8 -11 -8 -17 -2 -6 6 -7
16 -3 22 5 8 11 8 17 2 6 -6 7 -16 3 -22z m65 13 c0 -15 -2 -15 -9 -4 -8 13
-12 13 -28 0 -16 -13 -17 -13 -4 4 7 9 20 17 27 17 8 0 14 -8 14 -17z m227 -8
c1 -16 1 -16 -3 -2 -3 9 -12 17 -20 17 -8 0 -12 -4 -9 -10 3 -5 1 -10 -4 -10
-12 0 -14 13 -4 24 13 13 38 1 40 -19z m48 -5 c-5 -8 -11 -8 -17 -2 -6 6 -7
16 -3 22 5 8 11 8 17 2 6 -6 7 -16 3 -22z m65 13 c0 -14 -2 -15 -9 -4 -5 8
-14 10 -21 6 -9 -5 -11 -4 -6 3 11 18 36 14 36 -5z m227 -13 c1 -22 1 -22 -4
-2 -5 24 -19 29 -26 10 -2 -7 -8 -10 -12 -6 -11 11 5 29 23 26 10 -2 18 -14
19 -28z m48 0 c-5 -8 -11 -8 -17 -2 -6 6 -7 16 -3 22 5 8 11 8 17 2 6 -6 7
-16 3 -22z m-7720 -13 c29 4 50 1 60 -7 12 -10 18 -10 30 0 10 8 31 11 60 7
36 -5 46 -3 54 11 6 9 11 11 11 5 0 -7 -9 -18 -20 -25 -18 -12 -18 -13 -2 -33
l17 -20 -25 20 c-14 11 -28 24 -31 28 -3 5 -19 7 -35 5 -21 -2 -30 -9 -32 -25
-2 -13 -7 -23 -12 -23 -5 0 -10 10 -12 23 -4 32 -63 38 -73 7 -4 -12 -9 -19
-12 -16 -3 3 -15 -1 -27 -9 -30 -22 -70 -18 -92 8 l-19 22 23 -19 c20 -17 22
-17 22 -2 0 25 31 32 46 11 11 -15 16 -16 29 -5 14 11 13 14 -5 27 -11 8 -20
20 -20 26 0 7 5 4 11 -5 8 -14 18 -16 54 -11z m1010 0 c29 4 50 1 60 -7 12
-10 18 -10 30 0 10 8 31 11 60 7 36 -5 46 -3 54 11 6 9 11 11 11 5 0 -7 -9
-18 -20 -25 -18 -12 -18 -13 -2 -33 l17 -20 -25 20 c-14 11 -28 24 -31 28 -3
5 -19 7 -35 5 -21 -2 -30 -9 -32 -25 -2 -13 -7 -23 -12 -23 -5 0 -10 10 -12
23 -2 16 -11 23 -32 25 -16 2 -32 -2 -37 -9 -6 -10 -13 -9 -33 5 -14 9 -26 22
-26 29 0 6 5 4 11 -5 8 -14 18 -16 54 -11z m4440 0 c29 4 50 1 60 -7 12 -10
18 -10 30 0 10 8 31 11 60 7 36 -5 46 -3 54 11 6 9 11 11 11 5 0 -7 -12 -20
-26 -29 -20 -14 -27 -15 -33 -5 -5 7 -21 11 -37 9 -21 -2 -30 -9 -32 -25 -2
-13 -7 -23 -12 -23 -5 0 -10 10 -12 23 -2 16 -11 23 -32 25 -16 2 -32 -2 -37
-9 -6 -10 -13 -9 -33 5 -14 9 -26 22 -26 29 0 6 5 4 11 -5 8 -14 18 -16 54
-11z m-6430 -6 c-25 -5 -30 -11 -30 -34 1 -15 0 -27 -1 -27 -2 0 -9 13 -17 29
-17 34 -10 39 48 39 l30 0 -30 -7z m165 -10 c-11 -7 -20 -19 -20 -27 0 -7 -4
-15 -8 -18 -4 -2 -8 8 -7 22 0 21 -5 28 -23 30 -29 4 -55 -16 -49 -38 3 -11
-3 -16 -19 -16 -24 0 -32 10 -15 20 5 4 12 0 15 -6 3 -7 4 1 1 17 -4 19 -2 25
3 17 7 -10 11 -10 22 3 9 11 28 14 67 13 49 -3 52 -4 33 -17z m1210 4 c11 -13
15 -13 22 -3 5 8 7 2 3 -17 -3 -16 -2 -24 1 -17 3 6 10 10 15 6 19 -11 8 -20
-26 -20 -23 0 -35 5 -35 14 0 12 3 12 15 2 12 -10 15 -10 15 3 0 21 -25 39
-52 35 -18 -2 -23 -9 -23 -30 1 -14 -3 -24 -7 -22 -4 3 -8 11 -8 18 0 8 -9 20
-20 27 -19 13 -16 14 33 17 39 1 58 -2 67 -13z m106 9 c20 -5 21 -7 7 -35 -18
-36 -19 -36 -18 -2 0 23 -5 29 -30 34 -27 6 -28 7 -5 8 14 0 35 -2 46 -5z
m6014 -9 c11 -13 15 -13 22 -3 5 8 7 2 3 -17 -3 -16 -2 -24 1 -17 3 6 10 10
15 6 17 -10 9 -20 -15 -20 -16 0 -22 5 -19 16 6 22 -20 42 -49 38 -18 -2 -23
-9 -23 -30 1 -14 -3 -24 -7 -22 -4 3 -8 11 -8 18 0 8 -9 20 -20 27 -19 13 -16
14 33 17 39 1 58 -2 67 -13z m106 9 c20 -5 21 -7 7 -35 -18 -36 -19 -36 -18
-2 0 23 -5 29 -30 34 -27 6 -28 7 -5 8 14 0 35 -2 46 -5z m228 -2 c2 -4 -11
-6 -30 -4 -29 4 -36 1 -41 -17 -5 -20 -6 -20 -18 -4 -11 15 -11 19 3 25 24 9
80 10 86 0z m131 -8 c-13 -10 -12 -13 4 -28 17 -16 19 -16 24 4 7 28 41 22 45
-8 5 -33 -44 -29 -88 8 -19 17 -44 30 -57 30 -22 0 -44 -26 -36 -45 2 -6 -8
-11 -22 -11 -26 0 -33 10 -15 21 6 3 10 0 11 -7 0 -9 2 -8 6 2 15 39 36 51 90
48 42 -2 50 -5 38 -14z m206 0 c11 -9 19 -24 20 -33 0 -10 2 -12 6 -3 2 6 9
10 14 6 17 -10 9 -20 -16 -20 -14 0 -24 5 -22 11 7 18 -13 45 -35 45 -12 0
-37 -12 -57 -27 -20 -14 -28 -18 -19 -8 15 16 15 20 3 29 -12 9 -3 12 36 14
38 2 57 -2 70 -14z m111 8 c14 -6 14 -10 3 -25 -12 -16 -13 -16 -18 4 -5 18
-12 21 -41 17 -19 -2 -32 0 -30 4 6 10 62 9 86 0z m228 -7 c11 -13 15 -13 22
-3 5 8 7 2 3 -17 -3 -16 -2 -24 1 -17 3 6 10 10 15 6 17 -10 9 -20 -15 -20
-16 0 -22 5 -19 16 6 22 -20 42 -49 38 -18 -2 -23 -9 -23 -30 1 -14 -3 -24 -7
-22 -4 3 -8 11 -8 18 0 8 -9 20 -20 27 -19 13 -16 14 33 17 39 1 58 -2 67 -13z
m106 9 c20 -5 21 -7 7 -35 -18 -36 -19 -36 -18 -2 0 23 -5 29 -30 34 -27 6
-28 7 -5 8 14 0 35 -2 46 -5z m-8711 -23 c9 -16 -9 -20 -23 -5 -10 12 -10 14
2 14 8 0 17 -4 21 -9z m343 -19 c3 -18 -1 -22 -26 -22 -18 0 -36 9 -48 23
l-19 22 21 -18 c21 -17 22 -17 27 3 7 28 41 22 45 -8z m999 8 c5 -20 6 -20 27
-3 l21 18 -19 -22 c-24 -29 -76 -32 -76 -5 0 37 38 46 47 12z m337 4 c3 -9 11
-12 18 -8 9 5 9 3 -1 -9 -19 -24 -64 -21 -87 6 l-19 22 21 -18 c21 -17 22 -17
27 3 6 24 32 27 41 4z m336 -5 c0 -20 1 -21 24 -5 19 12 27 13 32 3 4 -6 4 -9
-1 -5 -4 4 -17 1 -29 -7 -11 -8 -32 -15 -47 -15 -23 0 -26 3 -21 25 6 32 42
35 42 4z m337 5 c3 -8 1 -20 -5 -26 -8 -8 -10 -4 -6 13 2 13 2 18 -2 12 -8
-18 -24 -16 -24 2 0 20 29 19 37 -1z m4103 1 c0 -18 -16 -20 -24 -2 -4 6 -4 1
-2 -12 4 -17 2 -21 -6 -13 -6 6 -8 18 -5 26 8 20 37 21 37 1z m337 -5 c5 -20
6 -20 27 -3 l21 18 -19 -22 c-24 -29 -76 -32 -76 -5 0 37 38 46 47 12z m340 1
c15 -23 8 -31 -27 -31 -16 0 -35 10 -46 23 l-19 22 21 -18 c21 -17 22 -17 27
3 6 25 28 26 44 1z m330 -1 c5 -20 6 -20 27 -3 l21 18 -19 -22 c-24 -29 -76
-32 -76 -5 0 37 38 46 47 12z m333 -2 c0 -21 0 -21 23 -2 l22 19 -19 -22 c-11
-14 -30 -23 -46 -23 -16 0 -35 9 -46 23 l-19 22 23 -19 c22 -19 22 -19 22 2 0
15 6 22 20 22 14 0 20 -7 20 -22z m670 2 c0 -25 7 -25 34 -2 21 17 21 17 2 -5
-12 -15 -30 -23 -51 -23 -21 0 -39 8 -51 23 l-19 22 21 -18 c21 -17 22 -17 27
3 7 26 37 26 37 0z m328 6 c-7 -8 -16 -12 -21 -9 -11 7 2 23 19 23 12 0 12 -2
2 -14z m-8763 -16 c-10 -11 -22 -20 -28 -20 -5 0 1 9 14 20 31 25 37 25 14 0z
m72 0 c1 -11 -3 -20 -8 -20 -6 0 -7 5 -4 10 3 6 1 10 -4 10 -6 0 -11 5 -11 10
0 19 26 10 27 -10z m123 9 c0 -5 -5 -7 -12 -3 -8 5 -9 1 -4 -12 5 -14 4 -16
-5 -7 -6 6 -8 16 -5 22 9 14 26 14 26 0z m215 1 c4 -6 11 -8 16 -5 5 4 9 4 9
1 0 -3 -9 -10 -20 -16 -16 -9 -19 -8 -13 6 4 12 3 15 -5 10 -7 -4 -12 -2 -12
3 0 14 17 14 25 1z m115 -1 c0 -5 -5 -7 -12 -3 -7 5 -9 2 -6 -8 4 -8 0 -15 -8
-15 -7 0 -16 7 -18 14 -3 8 -2 11 3 8 5 -3 12 -1 16 5 8 13 25 13 25 -1z m220
-3 c0 -8 -4 -18 -10 -21 -6 -4 -7 1 -3 11 4 12 3 15 -5 10 -7 -4 -12 -2 -12 3
0 6 7 11 15 11 8 0 15 -6 15 -14z m120 3 c0 -5 -5 -7 -12 -3 -8 5 -9 2 -5 -10
4 -10 3 -15 -3 -11 -15 10 -12 35 5 35 8 0 15 -5 15 -11z m215 1 c4 -6 11 -8
16 -5 5 4 9 4 9 1 0 -3 -9 -10 -20 -16 -16 -9 -19 -8 -13 6 4 12 3 15 -5 10
-7 -4 -12 -2 -12 3 0 14 17 14 25 1z m115 -1 c0 -5 -5 -7 -12 -3 -8 5 -9 2 -5
-10 6 -14 3 -15 -13 -6 -11 6 -20 13 -20 16 0 3 4 3 9 -1 5 -3 12 -1 16 5 8
13 25 13 25 -1z m216 0 c3 -6 1 -16 -5 -22 -9 -9 -10 -7 -5 7 5 13 4 17 -4 12
-7 -4 -12 -2 -12 3 0 14 17 14 26 0z m124 0 c0 -5 -5 -7 -12 -3 -8 5 -9 2 -5
-9 3 -10 2 -17 -3 -17 -6 0 -10 9 -10 20 0 11 7 20 15 20 8 0 15 -5 15 -11z
m205 1 c-3 -5 -11 -10 -16 -10 -6 0 -7 5 -4 10 3 6 11 10 16 10 6 0 7 -4 4
-10z m125 -1 c0 -5 -5 -7 -12 -3 -8 5 -9 1 -4 -12 5 -14 4 -16 -5 -7 -6 6 -8
16 -5 22 9 14 26 14 26 0z m225 1 c4 -6 11 -8 16 -5 5 4 9 4 9 1 0 -3 -9 -10
-20 -16 -16 -9 -19 -8 -13 6 4 12 3 15 -5 10 -7 -4 -12 -2 -12 3 0 14 17 14
25 1z m115 -1 c0 -5 -5 -7 -12 -3 -8 5 -9 2 -5 -10 6 -14 3 -15 -13 -6 -11 6
-20 13 -20 16 0 3 4 3 9 -1 5 -3 12 -1 16 5 8 13 25 13 25 -1z m4276 -1 c4 -7
4 -10 -1 -6 -4 4 -15 2 -24 -5 -14 -11 -14 -10 -2 6 16 20 18 21 27 5z m49 2
c4 -6 11 -8 16 -5 5 4 9 4 9 1 0 -3 -9 -10 -20 -16 -16 -9 -19 -8 -13 6 4 12
3 15 -5 10 -7 -4 -12 -2 -12 3 0 14 17 14 25 1z m115 -1 c0 -5 -5 -7 -12 -3
-8 5 -9 2 -5 -10 6 -14 3 -15 -13 -6 -11 6 -20 13 -20 16 0 3 4 3 9 -1 5 -3
12 -1 16 5 8 13 25 13 25 -1z m51 -6 c12 -16 12 -17 -2 -6 -9 7 -20 9 -24 5
-5 -4 -5 -1 -1 6 9 16 11 15 27 -5z m169 3 c0 -8 -4 -18 -10 -21 -6 -4 -7 1
-3 11 4 12 3 15 -5 10 -7 -4 -12 -2 -12 3 0 6 7 11 15 11 8 0 15 -6 15 -14z
m120 3 c0 -5 -5 -7 -12 -3 -8 5 -9 2 -5 -10 4 -10 3 -15 -3 -11 -15 10 -12 35
5 35 8 0 15 -5 15 -11z m215 1 c4 -6 11 -8 16 -5 5 3 6 -1 2 -11 -5 -15 -7
-15 -15 0 -5 9 -13 14 -19 11 -5 -4 -9 -1 -9 4 0 14 17 14 25 1z m115 -1 c0
-5 -5 -7 -12 -3 -7 5 -9 2 -6 -7 4 -9 -1 -15 -11 -15 -10 0 -18 6 -18 13 0 7
4 10 8 7 4 -2 10 0 14 6 8 13 25 13 25 -1z m216 0 c3 -6 1 -16 -5 -22 -9 -9
-10 -7 -5 7 5 13 4 17 -4 12 -7 -4 -12 -2 -12 3 0 14 17 14 26 0z m124 1 c0
-5 -4 -10 -9 -10 -6 0 -13 5 -16 10 -3 6 1 10 9 10 9 0 16 -4 16 -10z m205 0
c-3 -5 -10 -10 -16 -10 -5 0 -9 5 -9 10 0 6 7 10 16 10 8 0 12 -4 9 -10z m125
-1 c0 -5 -5 -7 -12 -3 -8 5 -9 1 -4 -12 5 -14 4 -16 -5 -7 -6 6 -8 16 -5 22 9
14 26 14 26 0z m216 0 c3 -6 1 -16 -5 -22 -9 -9 -10 -7 -5 7 5 13 4 17 -4 12
-7 -4 -12 -2 -12 3 0 14 17 14 26 0z m124 1 c0 -5 -4 -10 -9 -10 -6 0 -13 5
-16 10 -3 6 1 10 9 10 9 0 16 -4 16 -10z m216 -1 c3 -6 1 -16 -5 -22 -9 -9
-10 -7 -5 7 5 13 4 17 -4 12 -7 -4 -12 -2 -12 3 0 14 17 14 26 0z m124 1 c0
-5 -4 -10 -9 -10 -6 0 -13 5 -16 10 -3 6 1 10 9 10 9 0 16 -4 16 -10z m74 -29
c-3 -3 -15 6 -27 18 l-22 24 27 -19 c14 -10 24 -21 22 -23z m-6917 7 c-3 -8
-6 -5 -6 6 -1 11 2 17 5 13 3 -3 4 -12 1 -19z m5730 0 c-3 -8 -6 -5 -6 6 -1
11 2 17 5 13 3 -3 4 -12 1 -19z m390 0 c-3 -8 -6 -5 -6 6 -1 11 2 17 5 13 3
-3 4 -12 1 -19z m280 0 c-3 -8 -6 -5 -6 6 -1 11 2 17 5 13 3 -3 4 -12 1 -19z
m340 0 c-3 -8 -6 -5 -6 6 -1 11 2 17 5 13 3 -3 4 -12 1 -19z m217 7 c-4 -8
-11 -15 -16 -15 -6 0 -5 6 2 15 7 8 14 15 16 15 2 0 1 -7 -2 -15z m-11659 -67
c6 -4 2 -8 -7 -8 -10 0 -18 7 -18 17 0 9 3 12 8 7 4 -5 12 -12 17 -16z m132 0
c-3 -8 -6 -5 -6 6 -1 11 2 17 5 13 3 -3 4 -12 1 -19z m153 7 c0 -8 -7 -15 -15
-15 -13 0 -14 3 -3 15 16 18 18 18 18 0z m307 -7 c-3 -8 -6 -5 -6 6 -1 11 2
17 5 13 3 -3 4 -12 1 -19z m-903 4 c2 -4 -4 -8 -14 -8 -10 0 -16 4 -14 8 3 4
9 8 14 8 5 0 11 -4 14 -8z m151 -2 c3 -5 1 -10 -4 -10 -6 0 -11 5 -11 10 0 6
2 10 4 10 3 0 8 -4 11 -10z m608 3 c3 -5 -6 -9 -20 -10 -19 -1 -22 1 -12 8 17
11 26 11 32 2z m-803 -27 c0 -3 -4 -8 -10 -11 -5 -3 -10 -1 -10 4 0 6 5 11 10
11 6 0 10 -2 10 -4z m230 -6 c0 -5 -2 -10 -4 -10 -3 0 -8 5 -11 10 -3 6 -1 10
4 10 6 0 11 -4 11 -10z m530 6 c0 -3 -4 -8 -10 -11 -5 -3 -10 -1 -10 4 0 6 5
11 10 11 6 0 10 -2 10 -4z m-646 -14 c3 -5 -1 -9 -9 -9 -8 0 -12 4 -9 9 3 4 7
8 9 8 2 0 6 -4 9 -8z m156 0 c0 -5 -7 -9 -15 -9 -8 0 -12 4 -9 9 3 4 9 8 15 8
5 0 9 -4 9 -8z m75 -2 c3 -5 1 -10 -4 -10 -6 0 -11 5 -11 10 0 6 2 10 4 10 3
0 8 -4 11 -10z m75 0 c0 -5 -2 -10 -4 -10 -3 0 -8 5 -11 10 -3 6 -1 10 4 10 6
0 11 -4 11 -10z m154 2 c3 -5 -1 -9 -9 -9 -8 0 -15 4 -15 9 0 4 4 8 9 8 6 0
12 -4 15 -8z m150 0 c3 -5 -1 -9 -9 -9 -8 0 -15 4 -15 9 0 4 4 8 9 8 6 0 12
-4 15 -8z m156 0 c0 -5 -7 -9 -15 -9 -8 0 -12 4 -9 9 3 4 9 8 15 8 5 0 9 -4 9
-8z m75 -2 c3 -5 1 -10 -4 -10 -6 0 -11 5 -11 10 0 6 2 10 4 10 3 0 8 -4 11
-10z m-378 -458 c111 -92 191 -193 246 -310 l32 -67 3 -387 3 -388 -355 0
-356 0 0 358 c0 210 5 376 11 402 16 71 65 161 134 247 62 77 188 192 212 193
7 0 38 -22 70 -48z m3903 -368 c314 -238 578 -578 663 -849 45 -143 47 -192
47 -1036 l0 -799 -786 0 -785 0 4 842 c3 821 4 845 24 923 63 237 194 444 433
686 148 150 317 291 335 281 6 -3 35 -24 65 -48z m6520 -53 c297 -246 523
-553 607 -826 l28 -90 3 -857 3 -858 -781 0 -781 0 3 858 c3 834 4 859 24 927
48 161 126 308 252 475 79 104 277 302 400 399 94 74 105 80 123 68 10 -8 64
-51 119 -96z m4320 64 c0 -8 -7 -15 -15 -15 -16 0 -20 12 -8 23 11 12 23 8 23
-8z m285 -23 c1 -12 9 -30 18 -40 22 -25 47 -97 47 -138 l0 -34 -81 0 -81 0 7
48 c9 58 30 110 56 138 14 15 17 24 10 29 -14 8 -3 27 12 22 6 -2 11 -13 12
-25z m305 12 c0 -17 -22 -14 -28 4 -2 7 3 12 12 12 9 0 16 -7 16 -16z m298 -1
c-1 -10 10 -39 26 -65 17 -29 30 -68 33 -103 l6 -55 -82 0 c-44 0 -81 4 -81 8
0 29 35 133 55 164 14 20 22 44 19 53 -4 10 0 15 11 15 10 0 15 -7 13 -17z
m290 0 c-2 -10 9 -41 24 -69 16 -29 31 -75 35 -103 l6 -51 -82 0 c-72 0 -81 2
-81 18 0 31 29 115 52 152 12 19 21 43 19 53 -1 10 4 17 14 17 10 0 15 -6 13
-17z m-1142 -88 c13 -27 24 -69 24 -92 l0 -43 -81 0 -81 0 7 33 c12 61 36 126
57 152 25 32 41 22 74 -50z m586 5 c15 -30 28 -73 30 -95 l3 -40 -83 -3 -83
-3 7 28 c21 99 62 178 88 171 6 -2 23 -28 38 -58z m-672 -266 c0 -9 5 -12 13
-8 6 4 9 3 5 -1 -12 -13 -57 -15 -64 -3 -5 7 -1 9 9 5 11 -4 17 -1 17 8 0 8 5
15 10 15 6 0 10 -7 10 -16z m197 -16 c-3 -7 -5 -2 -5 12 0 14 2 19 5 13 2 -7
2 -19 0 -25z m213 17 c0 -9 6 -12 17 -8 11 4 14 3 9 -5 -7 -11 -36 -17 -36 -8
0 2 -3 11 -6 20 -3 9 -1 16 5 16 6 0 11 -7 11 -15z m210 -1 c0 -9 5 -12 13 -8
6 4 9 3 5 -1 -12 -13 -57 -15 -64 -3 -5 7 -1 9 9 5 11 -4 17 -1 17 8 0 8 5 15
10 15 6 0 10 -7 10 -16z m197 -16 c-3 -7 -5 -2 -5 12 0 14 2 19 5 13 2 -7 2
-19 0 -25z m213 17 c0 -9 6 -12 17 -8 11 4 14 3 9 -5 -7 -11 -36 -17 -36 -8 0
2 -3 11 -6 20 -3 9 -1 16 5 16 6 0 11 -7 11 -15z m207 -17 c-3 -7 -5 -2 -5 12
0 14 2 19 5 13 2 -7 2 -19 0 -25z m-1347 2 c0 -5 -4 -10 -10 -10 -5 0 -10 5
-10 10 0 6 5 10 10 10 6 0 10 -4 10 -10z m290 0 c0 -5 -2 -10 -4 -10 -3 0 -8
5 -11 10 -3 6 -1 10 4 10 6 0 11 -4 11 -10z m50 6 c0 -3 -4 -8 -10 -11 -5 -3
-10 -1 -10 4 0 6 5 11 10 11 6 0 10 -2 10 -4z m570 -6 c0 -5 -2 -10 -4 -10 -3
0 -8 5 -11 10 -3 6 -1 10 4 10 6 0 11 -4 11 -10z m50 6 c0 -3 -4 -8 -10 -11
-5 -3 -10 -1 -10 4 0 6 5 11 10 11 6 0 10 -2 10 -4z m370 -6 c0 -5 -2 -10 -4
-10 -3 0 -8 5 -11 10 -3 6 -1 10 4 10 6 0 11 -4 11 -10z m50 6 c0 -3 -4 -8
-10 -11 -5 -3 -10 -1 -10 4 0 6 5 11 10 11 6 0 10 -2 10 -4z m-1282 -51 c-3
-3 -9 2 -12 12 -6 14 -5 15 5 6 7 -7 10 -15 7 -18z m62 15 c0 -5 -2 -10 -4
-10 -3 0 -8 5 -11 10 -3 6 -1 10 4 10 6 0 11 -4 11 -10z m100 6 c0 -3 -4 -8
-10 -11 -5 -3 -10 -1 -10 4 0 6 5 11 10 11 6 0 10 -2 10 -4z m48 -27 c-3 -8
-7 -3 -11 10 -4 17 -3 21 5 13 5 -5 8 -16 6 -23z m62 21 c0 -5 -2 -10 -4 -10
-3 0 -8 5 -11 10 -3 6 -1 10 4 10 6 0 11 -4 11 -10z m100 6 c0 -3 -4 -8 -10
-11 -5 -3 -10 -1 -10 4 0 6 5 11 10 11 6 0 10 -2 10 -4z m53 -16 c-3 -12 -8
-19 -11 -16 -5 6 5 36 12 36 2 0 2 -9 -1 -20z m58 3 c13 -16 12 -17 -3 -4 -10
7 -18 15 -18 17 0 8 8 3 21 -13z m99 -8 c14 -19 14 -19 -2 -6 -10 7 -18 18
-18 24 0 6 1 8 3 6 1 -2 9 -13 17 -24z m48 8 c-6 -7 -12 -13 -13 -13 -2 0 -5
6 -8 13 -3 7 3 13 14 13 13 0 15 -3 7 -13z m52 7 c0 -5 -2 -10 -4 -10 -3 0 -8
5 -11 10 -3 6 -1 10 4 10 6 0 11 -4 11 -10z m100 6 c0 -3 -4 -8 -10 -11 -5 -3
-10 -1 -10 4 0 6 5 11 10 11 6 0 10 -2 10 -4z m48 -27 c-3 -8 -7 -3 -11 10 -4
17 -3 21 5 13 5 -5 8 -16 6 -23z m62 21 c0 -5 -2 -10 -4 -10 -3 0 -8 5 -11 10
-3 6 -1 10 4 10 6 0 11 -4 11 -10z m100 6 c0 -3 -4 -8 -10 -11 -5 -3 -10 -1
-10 4 0 6 5 11 10 11 6 0 10 -2 10 -4z m53 -16 c-3 -12 -8 -19 -11 -16 -5 6 5
36 12 36 2 0 2 -9 -1 -20z m58 3 c13 -16 12 -17 -3 -4 -17 13 -22 21 -14 21 2
0 10 -8 17 -17z m99 13 c0 -3 -4 -8 -10 -11 -5 -3 -10 -1 -10 4 0 6 5 11 10
11 6 0 10 -2 10 -4z m53 -16 c-3 -12 -8 -19 -11 -16 -5 6 5 36 12 36 2 0 2 -9
-1 -20z m61 4 c5 -14 4 -15 -9 -4 -17 14 -19 20 -6 20 5 0 12 -7 15 -16z
m-1197 -10 c2 -5 -6 -10 -16 -11 -14 -1 -18 3 -14 13 6 16 25 14 30 -2z m206
2 c4 -10 0 -14 -14 -13 -20 1 -24 9 -12 20 10 11 20 8 26 -7z m207 1 c0 -8 -7
-14 -15 -14 -8 0 -15 6 -15 14 0 7 7 13 15 13 8 0 15 -6 15 -13z m207 -3 c2
-5 -6 -10 -16 -11 -14 -1 -18 3 -14 13 6 16 25 14 30 -2z m206 2 c4 -10 0 -14
-14 -13 -20 1 -24 9 -12 20 10 11 20 8 26 -7z m207 -1 c0 -8 -8 -15 -17 -14
-11 0 -13 3 -5 6 6 2 10 9 6 14 -3 5 0 9 5 9 6 0 11 -7 11 -15z m207 0 c0 -8
-4 -12 -9 -9 -4 3 -8 9 -8 15 0 5 4 9 8 9 5 0 9 -7 9 -15z m-7668 -297 c44
-14 116 -80 144 -133 22 -40 22 -42 25 -812 l2 -773 -265 0 -265 0 0 758 c0
848 -3 816 70 891 80 82 173 104 289 69z m-1634 -29 c58 -30 100 -74 127 -133
l23 -51 0 -760 0 -760 -265 0 -265 0 -3 735 c-1 492 1 752 8 787 34 165 226
258 375 182z m-850 -3 c50 -21 106 -77 131 -131 l24 -50 0 -768 0 -767 -262 2
-263 3 -3 745 c-2 841 -4 815 70 897 46 49 77 68 135 83 45 11 124 4 168 -14z
m1690 -5 c22 -10 57 -37 78 -61 77 -84 72 -26 72 -880 l0 -765 -265 0 -265 0
0 760 c0 818 -2 789 52 862 75 102 209 137 328 84z m7851 -292 c154 -130 252
-252 319 -394 24 -49 48 -114 54 -143 7 -35 11 -237 11 -582 l0 -530 -486 0
-485 0 3 548 c4 530 5 549 26 612 43 128 146 282 269 402 85 82 176 157 192
158 7 0 51 -32 97 -71z"/>
<path d="M5438 4233 c6 -2 18 -2 25 0 6 3 1 5 -13 5 -14 0 -19 -2 -12 -5z"/>
<path d="M5788 4233 c6 -2 18 -2 25 0 6 3 1 5 -13 5 -14 0 -19 -2 -12 -5z"/>
<path d="M12908 4233 c7 -3 16 -2 19 1 4 3 -2 6 -13 5 -11 0 -14 -3 -6 -6z"/>
<path d="M5118 4233 c7 -3 16 -2 19 1 4 3 -2 6 -13 5 -11 0 -14 -3 -6 -6z"/>
<path d="M6118 4233 c7 -3 16 -2 19 1 4 3 -2 6 -13 5 -11 0 -14 -3 -6 -6z"/>
<path d="M6458 4233 c6 -2 18 -2 25 0 6 3 1 5 -13 5 -14 0 -19 -2 -12 -5z"/>
<path d="M6790 4240 c0 -5 5 -10 11 -10 5 0 7 5 4 10 -3 6 -8 10 -11 10 -2 0
-4 -4 -4 -10z"/>
<path d="M11568 4233 c7 -3 16 -2 19 1 4 3 -2 6 -13 5 -11 0 -14 -3 -6 -6z"/>
<path d="M11908 4233 c6 -2 18 -2 25 0 6 3 1 5 -13 5 -14 0 -19 -2 -12 -5z"/>
<path d="M12238 4233 c7 -3 16 -2 19 1 4 3 -2 6 -13 5 -11 0 -14 -3 -6 -6z"/>
<path d="M13246 4245 c-3 -8 -1 -15 4 -15 6 0 10 7 10 15 0 8 -2 15 -4 15 -2
0 -6 -7 -10 -15z"/>
<path d="M19153 12152 c-11 -8 -2 -43 11 -44 9 0 26 22 26 33 0 11 -26 18 -37
11z"/>
<path d="M9356 10265 c-10 -19 -26 -37 -35 -39 -9 -2 -29 -7 -45 -11 l-29 -6
29 -30 c23 -24 27 -36 25 -74 -1 -25 1 -45 4 -45 3 0 22 7 41 15 32 13 39 13
64 0 47 -24 53 -20 46 27 -6 37 -4 44 25 74 l32 33 -29 6 c-59 14 -65 17 -81
51 -9 19 -19 34 -23 34 -3 0 -14 -16 -24 -35z"/>
<path d="M16180 9085 c0 -8 5 -15 10 -15 6 0 10 7 10 15 0 8 -4 15 -10 15 -5
0 -10 -7 -10 -15z"/>
<path d="M877 8904 c-8 -8 1 -24 14 -24 5 0 9 7 9 15 0 15 -12 20 -23 9z"/>
</g>
</svg>
