<?xml version="1.0" standalone="no"?>
<!DOCTYPE svg PUBLIC "-//W3C//DTD SVG 20010904//EN"
 "http://www.w3.org/TR/2001/REC-SVG-20010904/DTD/svg10.dtd">
<svg version="1.0" xmlns="http://www.w3.org/2000/svg"
 width="2645.000000pt" height="1620.000000pt" viewBox="0 0 2645.000000 1620.000000"
 preserveAspectRatio="xMidYMid meet">

<g transform="translate(0.000000,1620.000000) scale(0.100000,-0.100000)"
fill="rgba(255, 255, 255, 0.377)" stroke="none">
<path d="M7976 16170 c-62 -55 -87 -171 -53 -251 16 -40 68 -95 97 -104 26 -8
26 -15 -11 -131 -38 -122 -48 -224 -26 -287 15 -45 15 -45 -12 -65 -40 -29
-92 -133 -98 -196 -6 -61 16 -143 47 -171 11 -10 20 -26 20 -36 0 -18 -8 -26
-129 -116 -108 -80 -101 -40 -101 -625 0 -399 -3 -508 -12 -509 -7 0 -62 -8
-123 -17 l-110 -18 3 -99 c2 -56 -4 -162 -13 -240 -10 -80 -15 -165 -11 -198
12 -119 74 -205 174 -244 l44 -17 -7 -427 c-4 -235 -10 -464 -14 -508 l-6 -81
-130 -4 c-71 -2 -160 -4 -197 -5 l-68 -1 0 -538 0 -537 101 -100 100 -100 -7
-970 c-3 -533 -8 -973 -11 -977 -2 -5 -60 -8 -129 -8 l-124 0 0 -612 0 -613
140 -140 139 -140 10 -270 c6 -148 13 -328 16 -400 2 -71 8 -200 11 -285 l7
-154 -84 79 c-226 212 -485 365 -1014 600 -291 128 -758 358 -973 478 -504
282 -879 574 -1175 917 -50 58 -94 105 -97 105 -4 0 -42 -43 -85 -95 -225
-270 -525 -523 -894 -754 l-44 -28 5 74 c4 53 23 128 71 278 114 353 338 1082
334 1086 -6 6 -95 12 -284 20 l-173 6 0 1317 0 1317 41 39 c62 60 154 177 194
249 131 234 139 515 24 801 -126 311 -392 654 -802 1032 -89 83 -175 162 -191
175 l-30 25 29 34 c58 70 83 182 60 270 -14 53 -57 123 -84 139 -14 7 -13 12
8 41 37 50 37 100 2 210 -17 53 -31 101 -31 107 0 6 17 14 38 18 95 17 190 93
238 189 29 61 41 153 26 205 l-10 35 -1 -31 c-2 -49 -27 -122 -56 -160 -59
-78 -174 -99 -277 -52 -112 52 -162 121 -162 223 0 71 17 107 83 178 46 50 46
50 16 43 -91 -22 -150 -71 -192 -162 -70 -154 -13 -359 122 -435 38 -21 55
-37 55 -51 0 -11 -15 -52 -32 -91 -45 -98 -46 -182 -5 -225 l28 -29 -36 -59
c-85 -141 -86 -295 -1 -361 14 -12 26 -25 26 -31 0 -6 -89 -95 -197 -198 -295
-280 -580 -568 -656 -664 -145 -181 -243 -355 -289 -515 -19 -68 -23 -102 -22
-225 0 -131 3 -153 28 -230 37 -112 100 -227 186 -339 l70 -90 0 -1350 c0
-1092 -2 -1350 -13 -1354 -7 -3 -126 -4 -265 -3 -139 0 -252 0 -252 -1 0 -3
305 -909 325 -965 l17 -48 86 -1 c48 -1 91 -1 95 0 5 1 7 -137 5 -306 l-4
-308 -74 0 c-41 0 -128 -1 -192 -3 l-117 -2 70 -112 c40 -62 106 -167 148
-233 59 -92 89 -151 126 -253 26 -73 46 -134 44 -136 -2 -2 -40 -27 -84 -56
-357 -238 -599 -523 -680 -802 l-16 -58 -162 -2 c-89 0 -169 0 -177 1 -8 0
-48 -1 -87 -5 l-73 -6 0 -2719 0 -2719 13225 0 13225 0 0 355 0 355 -139 0
-138 0 -18 93 c-10 50 -28 139 -41 197 -32 141 -31 183 7 258 23 47 57 87 146
172 100 94 113 110 92 112 -69 4 -126 6 -243 7 -117 1 -128 2 -123 19 4 9 31
89 61 177 77 223 122 426 151 685 12 113 7 463 -10 585 -28 209 -88 445 -153
596 -53 123 -342 431 -767 817 -459 416 -685 657 -847 899 -61 91 -188 334
-188 359 0 8 14 27 31 42 44 39 48 93 15 197 -14 44 -26 85 -26 92 0 6 24 19
54 27 140 41 237 185 211 313 l-8 38 -8 -53 c-9 -69 -47 -118 -121 -155 -103
-52 -208 -33 -276 49 -78 94 -63 238 33 322 42 37 33 40 -30 11 -90 -42 -142
-136 -138 -247 3 -89 29 -149 92 -211 31 -31 64 -61 75 -66 18 -10 17 -14 -14
-85 -43 -103 -49 -166 -20 -218 l23 -40 -53 -99 c-116 -219 -302 -476 -496
-684 -131 -141 -200 -203 -379 -341 -628 -487 -941 -838 -1103 -1235 -68 -167
-101 -333 -102 -505 l0 -98 -62 4 c-35 2 -118 4 -185 5 l-123 1 0 339 c0 187
-3 346 -6 355 -5 14 -40 16 -281 16 -170 0 -282 4 -294 10 -18 10 -19 28 -19
671 0 436 4 667 10 680 10 18 23 19 201 19 l189 0 -2 273 -3 272 -372 1 c-204
1 -376 5 -382 8 -6 4 -11 32 -11 63 0 43 7 67 29 107 123 219 241 718 242
1030 1 106 -2 131 -27 205 -50 152 -124 256 -384 546 -232 258 -325 385 -387
530 -52 120 -53 124 -26 178 52 102 53 237 4 347 -18 40 -18 45 -4 67 9 14 18
55 21 98 4 59 -1 91 -22 164 -14 51 -26 96 -26 101 0 5 22 19 49 30 114 50
182 184 180 358 l0 67 -19 -73 c-37 -140 -107 -212 -206 -212 -27 0 -43 9 -77
43 -69 69 -92 126 -92 232 0 99 19 155 69 208 37 37 15 34 -29 -4 -73 -64
-116 -167 -117 -279 -1 -129 39 -229 121 -301 l49 -44 -30 -95 c-36 -112 -44
-230 -17 -270 15 -22 14 -27 -15 -84 -29 -57 -31 -69 -31 -166 0 -99 2 -110
32 -170 l32 -64 -46 -90 c-89 -178 -195 -320 -467 -631 -165 -189 -216 -263
-264 -386 -59 -149 -83 -288 -83 -486 0 -269 62 -535 177 -754 35 -66 36 -71
33 -158 -2 -50 -9 -95 -16 -102 -8 -8 -121 -11 -401 -12 l-389 0 -7 -270 c-4
-148 -6 -270 -4 -272 2 -2 82 -7 178 -11 96 -3 177 -8 180 -9 10 -6 11 -1330
1 -1344 -7 -11 -83 -13 -447 -12 -240 1 -441 4 -446 7 -4 3 -8 141 -8 308 0
167 -3 378 -7 469 l-6 167 -72 0 c-39 0 -74 2 -76 5 -3 2 3 55 12 117 10 62
18 138 18 169 2 135 -65 242 -251 401 -215 184 -321 313 -290 355 46 65 51
136 13 199 -14 23 -16 35 -9 49 21 36 -16 285 -42 285 -11 0 -51 -134 -57
-194 -3 -30 -1 -68 5 -85 9 -25 7 -34 -7 -53 -58 -74 -67 -147 -25 -198 l26
-31 -27 -41 c-38 -57 -105 -128 -200 -211 -154 -134 -255 -239 -280 -294 -38
-78 -49 -184 -35 -326 6 -65 14 -125 16 -132 5 -11 -41 -12 -248 -8 -139 2
-266 5 -283 7 l-30 2 -9 172 c-7 146 -6 183 7 238 21 85 59 140 131 189 139
95 167 248 142 770 l-9 189 -41 -82 c-22 -45 -43 -82 -46 -82 -3 0 -18 36 -34
80 -15 44 -32 80 -37 80 -16 0 -27 -35 -32 -103 -6 -84 -15 -96 -59 -76 l-32
16 3 494 2 494 -60 60 c-34 33 -61 62 -61 65 0 3 24 18 54 33 29 15 66 42 82
58 l29 30 1 287 c2 263 -8 527 -22 610 -5 31 -7 33 -42 30 l-37 -3 -5 -92 c-4
-69 -10 -97 -23 -110 -16 -16 -18 -16 -44 3 -26 20 -28 27 -33 115 -5 89 -6
94 -28 97 -43 6 -52 -13 -52 -109 0 -85 -1 -90 -24 -100 -14 -7 -37 -9 -51 -5
l-27 7 6 322 c3 177 8 581 12 897 l6 575 54 92 54 92 -2 393 -3 393 -102 3
-103 3 -45 77 c-124 210 -150 474 -68 682 27 68 69 136 111 183 l26 27 -63 0
-63 0 54 59 c102 113 151 250 152 421 1 85 -3 118 -23 175 -31 94 -112 253
-201 400 -150 247 -216 412 -236 593 -7 62 -6 63 29 98 59 60 69 152 22 205
-13 13 -14 22 -6 38 14 25 14 84 0 98 -7 7 -2 15 15 27 50 32 78 119 56 171
-8 18 -9 17 -9 -7 -1 -38 -45 -86 -87 -94 -71 -13 -124 38 -110 109 l6 32 -20
-24 c-35 -41 -22 -119 28 -164 19 -17 19 -19 1 -53 -18 -35 -17 -48 3 -91 10
-19 7 -26 -15 -43 -32 -25 -51 -80 -42 -123 4 -17 21 -57 39 -87 30 -53 31
-59 30 -165 0 -162 -24 -219 -229 -565 -114 -192 -148 -258 -181 -357 -65
-194 -9 -430 145 -605 23 -25 41 -49 41 -52 0 -3 -27 -6 -61 -6 l-61 0 47 -52
c57 -65 109 -172 126 -255 17 -90 7 -259 -21 -362 -13 -46 -46 -129 -74 -185
l-51 -101 -50 -2 c-28 -2 -78 -5 -113 -9 l-63 -6 7 -395 7 -395 53 -87 52 -86
6 -610 c4 -335 9 -735 12 -887 l5 -278 -36 -17 c-50 -24 -57 -12 -59 99 l-1
93 -42 3 -43 3 0 -93 c0 -102 -7 -118 -51 -118 -35 0 -37 4 -44 76 -15 150
-13 144 -50 144 l-33 0 -6 -122 c-3 -68 -8 -220 -11 -338 -3 -118 -8 -274 -11
-346 l-6 -131 44 -35 c23 -20 62 -47 86 -62 23 -14 42 -30 42 -34 0 -4 -27
-30 -60 -57 l-60 -50 6 -496 c6 -452 5 -496 -10 -502 -29 -11 -43 3 -79 84
-19 43 -40 79 -46 79 -18 0 -39 -43 -52 -108 -6 -34 -15 -62 -18 -62 -4 0 -17
28 -30 63 -12 34 -31 73 -41 87 -20 25 -20 25 -18 -355 3 -355 4 -383 23 -420
39 -79 98 -158 176 -234 l79 -78 0 -232 0 -232 -183 5 c-101 3 -312 6 -471 7
-284 1 -287 1 -296 23 -5 11 -41 201 -80 421 -40 220 -78 432 -87 470 -36 174
-9 240 167 407 l119 113 -197 3 c-108 2 -198 5 -199 6 -2 1 37 81 85 177 49
96 99 207 111 247 l24 72 98 0 99 0 0 215 0 215 -57 0 c-108 0 -101 -13 -98
183 5 267 -23 483 -90 684 -103 308 -283 528 -890 1081 -479 437 -689 660
-848 902 -68 105 -187 333 -187 362 0 8 13 27 30 43 68 65 77 172 22 250 l-30
42 55 17 c69 22 149 88 181 149 27 53 39 130 27 174 -8 25 -9 23 -16 -25 -14
-104 -118 -186 -234 -186 -68 1 -105 16 -152 66 -88 91 -84 225 7 320 26 27
45 48 43 48 -14 0 -89 -46 -118 -72 -49 -43 -77 -101 -83 -174 -7 -91 17 -154
87 -224 31 -32 65 -62 76 -68 19 -10 19 -12 -11 -44 -46 -48 -66 -93 -66 -152
-1 -55 21 -113 52 -141 19 -17 18 -20 -32 -118 -67 -135 -113 -207 -229 -362
-230 -308 -507 -571 -1088 -1034 -231 -185 -357 -321 -479 -516 -103 -167
-168 -318 -218 -512 -45 -178 -64 -331 -64 -529 l0 -164 -85 0 -85 0 0 -215 0
-215 58 -1 c31 -1 64 -3 72 -4 8 -1 36 -3 62 -4 l46 -1 36 -107 c20 -60 57
-144 81 -188 50 -87 79 -148 90 -182 l6 -23 -171 0 -172 0 53 -40 c95 -71 198
-207 225 -296 19 -62 18 -172 -2 -247 -8 -34 -44 -135 -79 -226 -34 -92 -67
-182 -71 -201 -8 -35 -8 -35 -15 20 -4 30 -7 182 -8 337 l-1 283 -22 4 c-13 3
-151 7 -308 10 -157 3 -300 9 -317 12 l-33 6 0 785 0 785 130 135 130 136 0
613 0 614 -107 0 c-60 0 -125 3 -145 6 l-38 7 0 961 0 961 91 91 91 91 5 557
6 556 -39 1 c-21 1 -55 3 -74 4 -19 2 -74 4 -122 4 l-88 1 0 504 0 504 35 22
c57 35 101 95 125 171 22 66 22 80 15 222 -7 120 -10 246 -10 387 0 1 -51 7
-113 14 -62 8 -115 16 -118 19 -3 2 -5 227 -4 499 l0 493 -36 60 c-53 89 -82
124 -132 159 -24 17 -51 36 -59 41 -13 10 -12 16 8 49 15 27 24 60 27 111 6
96 -16 162 -74 223 l-44 46 16 43 c22 57 14 170 -20 282 -35 113 -34 117 13
124 54 7 108 34 147 75 42 43 44 60 5 31 -16 -12 -50 -24 -75 -26 -149 -17
-272 159 -197 280 28 45 22 46 -23 7z m-87 -1597 c22 -18 22 -18 19 -434 -3
-442 -4 -449 -51 -449 -11 0 -29 7 -39 17 -17 15 -18 42 -18 439 0 392 1 424
18 433 25 15 47 13 71 -6z m219 5 c9 -9 12 -119 12 -434 0 -371 -2 -424 -16
-438 -21 -22 -31 -20 -59 9 l-25 24 0 410 c0 225 3 416 6 425 7 19 64 22 82 4z
m202 -10 c19 -21 20 -33 20 -439 0 -417 0 -418 -22 -433 -22 -16 -53 -8 -70
18 -4 6 -8 197 -8 425 0 372 2 416 17 433 21 24 38 23 63 -4z m-6607 -3562
c36 -15 83 -65 99 -105 6 -16 12 -360 15 -896 l5 -870 -24 -35 c-50 -73 -149
-101 -215 -60 -58 35 -60 48 -67 355 -7 353 -21 1330 -20 1410 1 70 25 124 76
171 50 47 77 53 131 30z m527 -8 c18 -13 45 -41 61 -63 l28 -40 5 -525 c4
-289 9 -680 12 -870 l5 -345 -23 -45 c-61 -119 -221 -114 -256 8 -7 24 -11
337 -14 907 l-3 870 22 42 c44 81 101 103 163 61z m592 -24 c46 -41 46 -39 53
-824 3 -410 8 -786 10 -836 6 -117 -11 -183 -56 -231 -88 -92 -193 -82 -240
21 -17 39 -18 87 -20 831 0 435 -1 822 -1 861 -1 106 39 168 127 200 37 13 99
3 127 -22z m12817 -1549 l31 -36 0 -789 0 -789 -30 -16 c-39 -20 -73 -19 -101
4 l-24 19 -3 794 -3 794 21 27 c31 39 70 36 109 -8z m-489 -17 c19 -32 20 -53
20 -794 l0 -761 -24 -22 c-35 -33 -85 -38 -119 -11 l-27 21 0 774 0 773 31 26
c45 38 93 36 119 -6z m-395 -2735 c-3 -27 -7 -209 -9 -406 -3 -197 -7 -361
-10 -365 -2 -4 -29 -5 -60 -4 l-56 4 0 378 c0 207 3 392 6 409 6 31 7 31 70
31 l63 0 -4 -47z m201 27 l64 0 -1 -262 c-1 -145 -4 -330 -8 -413 l-6 -150
-25 1 c-14 1 -53 2 -87 3 l-62 1 4 73 c2 39 6 223 10 407 4 184 9 339 12 343
3 5 12 6 20 3 8 -3 44 -6 79 -6z m794 -439 l0 -429 -51 -4 c-28 -1 -54 2 -57
7 -8 12 -16 819 -9 839 3 8 26 13 61 15 l56 2 0 -430z m230 -2 c0 -405 -1
-430 -17 -425 -10 3 -39 8 -65 12 -27 3 -48 11 -49 18 -3 58 3 812 7 818 3 4
32 8 65 8 l59 0 0 -431z m-7977 -736 c-7 -2 -19 -2 -25 0 -7 3 -2 5 12 5 14 0
19 -2 13 -5z"/>
</g>
</svg>
